<svg width="531" height="220" viewBox="0 0 531 220" fill="none" xmlns="http://www.w3.org/2000/svg">
<path d="M139.248 132.481V3.7594H86.6165L0 141.955V177.444H91.5789V216.241H139.248V177.444H160.15V132.481H139.248ZM91.5789 67.5188V132.481H52.6316L91.5789 67.5188Z" fill="#25A9E0"/>
<path d="M264.662 220C289.474 220 309.774 209.774 325.414 189.323C340.902 168.872 348.722 142.406 348.722 109.925C348.722 77.594 340.902 51.1278 325.414 30.6767C309.774 10.2256 289.474 0 264.662 0C240 0 219.85 10.2256 204.361 30.6767C188.722 51.1278 180.902 77.594 180.902 109.925C180.902 142.406 188.722 168.872 204.361 189.323C219.85 209.774 240 220 264.662 220ZM264.662 173.985C254.436 173.985 246.165 167.97 239.699 155.94C233.233 144.06 229.925 128.722 229.925 109.925C229.925 91.2782 233.233 75.9398 239.699 63.9098C246.165 51.8797 254.436 45.8647 264.662 45.8647C275.188 45.8647 283.759 51.8797 290.226 63.7594C296.692 75.6391 299.85 91.1278 299.85 109.925C299.85 128.872 296.541 144.211 290.075 156.09C283.609 167.97 275.038 173.985 264.662 173.985Z" fill="#25A9E0"/>
<path d="M509.173 132.481V3.7594H456.541L369.925 141.955V177.444H461.504V216.241H509.173V177.444H530.075V132.481H509.173ZM461.504 67.5188V132.481H422.556L461.504 67.5188Z" fill="#25A9E0"/>
<path d="M259.914 170.57C257.195 166.93 250.518 156.916 247.296 142.66C243.587 126.245 244.451 104.178 261.281 79.6879C261.526 79.932 261.873 80.2851 262.301 80.7428C263.205 81.7084 264.473 83.139 265.923 84.9927C268.792 88.6614 272.369 93.9818 275.247 100.63C259.733 130.996 259.467 160.587 259.914 170.57Z" fill="#9ACA46" stroke="white"/>
<path d="M273.437 124.975C286.066 88.4505 312.536 62.2744 352.208 47.1238C353.938 58.9205 356.819 93.1837 338.666 123.678L339.096 123.934L338.666 123.678C324.25 147.901 299.854 164.628 266.048 173.423C265.753 165.199 266.094 146.216 273.437 124.975Z" fill="#9ACA46" stroke="white"/>
</svg>
