<svg width="541" height="201" viewBox="0 0 541 201" fill="none" xmlns="http://www.w3.org/2000/svg">
<path d="M201.794 124.134C199.075 120.494 192.398 110.48 189.176 96.2239C185.467 79.8086 186.331 57.7417 203.161 33.2518C203.406 33.496 203.753 33.8491 204.181 34.3067C205.085 35.2724 206.353 36.703 207.803 38.5566C210.672 42.2254 214.249 47.5458 217.127 54.1941C201.613 84.5597 201.347 114.151 201.794 124.134Z" fill="#9ACA46" stroke="white"/>
<path d="M215.317 78.5388C227.946 42.0144 254.417 15.8384 294.089 0.687811C295.818 12.4845 298.699 46.7477 280.547 77.2419L280.976 77.4976L280.547 77.2419C266.131 101.465 241.734 118.191 207.928 126.987C207.634 118.763 207.974 99.7797 215.317 78.5388Z" fill="#9ACA46" stroke="white"/>
<path d="M0 151C0 167.72 12.24 179.48 28.32 179.48C40.72 179.48 50.8 172.92 54.56 161.4H41.68C39.04 166.84 34.24 169.48 28.24 169.48C18.48 169.48 11.52 162.28 11.52 151C11.52 139.64 18.48 132.52 28.24 132.52C34.24 132.52 39.04 135.16 41.68 140.52H54.56C50.8 129.08 40.72 122.44 28.32 122.44C12.24 122.44 0 134.28 0 151Z" fill="#353D46"/>
<path d="M106.926 156.84C106.926 142.84 96.9263 133.96 84.1263 133.96C71.3262 133.96 61.3262 142.84 61.3262 156.84C61.3262 170.76 71.0062 179.72 83.8062 179.72C96.6862 179.72 106.926 170.76 106.926 156.84ZM72.6862 156.84C72.6862 147.96 78.0462 143.72 83.9662 143.72C89.8863 143.72 95.4062 147.96 95.4062 156.84C95.4062 165.64 89.7262 169.96 83.8062 169.96C77.8062 169.96 72.6862 165.64 72.6862 156.84Z" fill="#353D46"/>
<path d="M177.142 179H188.342V153C188.342 140.76 180.822 134.04 170.182 134.04C163.702 134.04 157.862 137.48 154.982 142.52C151.942 137 146.262 134.04 139.382 134.04C133.862 134.04 129.142 136.36 126.342 140.04V134.68H115.142V179H126.342V154.52C126.342 147.48 130.262 143.8 136.342 143.8C142.262 143.8 146.182 147.48 146.182 154.52V179H157.382V154.52C157.382 147.48 161.302 143.8 167.302 143.8C173.222 143.8 177.142 147.48 177.142 154.52V179Z" fill="#353D46"/>
<path d="M198.97 179H210.17V134.68H198.97V179ZM204.65 129.4C208.57 129.4 211.53 126.52 211.53 122.84C211.53 119.16 208.57 116.28 204.65 116.28C200.65 116.28 197.77 119.16 197.77 122.84C197.77 126.52 200.65 129.4 204.65 129.4Z" fill="#353D46"/>
<path d="M252.276 179H263.476V153C263.476 140.76 256.116 134.04 245.796 134.04C240.116 134.04 235.316 136.44 232.436 140.2V134.68H221.236V179H232.436V154.52C232.436 147.4 236.356 143.56 242.436 143.56C248.356 143.56 252.276 147.4 252.276 154.52V179Z" fill="#353D46"/>
<path d="M271.246 156.68C271.246 170.52 280.206 179.72 291.486 179.72C298.446 179.72 303.486 176.28 306.126 172.44V179.32C306.126 187.56 301.326 191.08 295.166 191.08C289.566 191.08 285.406 188.44 284.286 184.44H273.166C274.286 194.6 283.006 200.84 295.486 200.84C310.046 200.84 317.406 191.32 317.406 179.32V134.68H306.126V141C303.486 137.16 298.446 133.96 291.486 133.96C280.206 133.96 271.246 142.84 271.246 156.68ZM306.126 156.84C306.126 165.24 300.526 169.88 294.366 169.88C288.366 169.88 282.686 165.08 282.686 156.68C282.686 148.28 288.366 143.8 294.366 143.8C300.526 143.8 306.126 148.44 306.126 156.84Z" fill="#353D46"/>
<path d="M386.448 162.84C386.448 143.16 357.807 149.4 357.807 138.2C357.807 133.64 361.087 131.48 365.487 131.64C370.287 131.72 373.247 134.6 373.487 138.28H385.807C385.087 128.2 377.247 122.36 365.807 122.36C354.288 122.36 346.128 128.44 346.128 138.52C346.048 158.76 374.847 151.48 374.847 163.56C374.847 167.56 371.728 170.36 366.448 170.36C361.247 170.36 358.287 167.4 357.967 162.92H345.967C346.127 173.48 355.087 179.56 366.688 179.56C379.408 179.56 386.448 171.64 386.448 162.84Z" fill="#353D46"/>
<path d="M438.958 156.84C438.958 142.84 428.958 133.96 416.158 133.96C403.358 133.96 393.357 142.84 393.357 156.84C393.357 170.76 403.038 179.72 415.838 179.72C428.718 179.72 438.958 170.76 438.958 156.84ZM404.718 156.84C404.718 147.96 410.077 143.72 415.997 143.72C421.918 143.72 427.438 147.96 427.438 156.84C427.438 165.64 421.758 169.96 415.838 169.96C409.838 169.96 404.718 165.64 404.718 156.84Z" fill="#353D46"/>
<path d="M489.973 156.84C489.973 142.84 479.973 133.96 467.173 133.96C454.373 133.96 444.373 142.84 444.373 156.84C444.373 170.76 454.053 179.72 466.853 179.72C479.733 179.72 489.973 170.76 489.973 156.84ZM455.733 156.84C455.733 147.96 461.093 143.72 467.013 143.72C472.933 143.72 478.453 147.96 478.453 156.84C478.453 165.64 472.773 169.96 466.853 169.96C460.853 169.96 455.733 165.64 455.733 156.84Z" fill="#353D46"/>
<path d="M529.229 179H540.429V153C540.429 140.76 533.069 134.04 522.749 134.04C517.069 134.04 512.269 136.44 509.389 140.2V134.68H498.189V179H509.389V154.52C509.389 147.4 513.309 143.56 519.389 143.56C525.309 143.56 529.229 147.4 529.229 154.52V179Z" fill="#353D46"/>
</svg>
