<svg width="23" height="22" viewBox="0 0 23 22" fill="none" xmlns="http://www.w3.org/2000/svg">
<path d="M22.28 11C22.28 4.92422 17.3558 0 11.28 0C5.20425 0 0.280029 4.92422 0.280029 11C0.280029 17.0758 5.20425 22 11.28 22C11.3445 22 11.4089 22 11.4734 21.9957V13.4363H9.11011V10.682H11.4734V8.65391C11.4734 6.30352 12.9085 5.02305 15.0054 5.02305C16.0109 5.02305 16.8746 5.09609 17.1238 5.13047V7.58828H15.68C14.5414 7.58828 14.3179 8.12969 14.3179 8.92461V10.6777H17.0464L16.6898 13.432H14.3179V21.5746C18.9156 20.2555 22.28 16.023 22.28 11Z" fill="#25A9E0"/>
</svg>
