<svg width="22" height="22" viewBox="0 0 22 22" fill="none" xmlns="http://www.w3.org/2000/svg">
<g id="Group 172">
<path id="Subtract" fill-rule="evenodd" clip-rule="evenodd" d="M0 11C0 4.9258 4.9258 0 11 0C17.0742 0 22 4.9258 22 11C22 17.0742 17.0742 22 11 22C4.9258 22 0 17.0742 0 11ZM8.5411 5.07873C9.35783 5.00544 10.1783 4.98334 10.9978 5.01257C11.8184 4.9832 12.6401 5.0053 13.4579 5.07873C13.9577 5.07714 14.4535 5.16682 14.9211 5.34337C15.3244 5.47399 15.6896 5.70109 15.9852 6.00496C16.2935 6.30203 16.5238 6.67054 16.6556 7.07785C16.8325 7.54534 16.9226 8.04122 16.9214 8.54107C16.9946 9.3578 17.0167 10.1783 16.9875 10.9978C16.9875 11.9684 16.963 12.4236 16.9439 12.7803C16.9315 13.0099 16.9214 13.1987 16.9214 13.4578C16.9226 13.9597 16.8317 14.4575 16.6534 14.9266C16.3738 15.7382 15.7361 16.3759 14.9244 16.6555C14.4569 16.8325 13.961 16.9225 13.4612 16.9213C12.6434 16.9947 11.8217 17.0168 11.0011 16.9874C10.1806 17.0168 9.35893 16.9947 8.5411 16.9213C8.03773 16.9208 7.53875 16.8277 7.06904 16.6467C6.66578 16.5161 6.30051 16.289 6.00497 15.9851C5.7011 15.6896 5.47399 15.3243 5.34337 14.921C5.16682 14.4535 5.07714 13.9576 5.07873 13.4578C5.0053 12.64 4.9832 11.8184 5.01257 10.9978C4.98334 10.1783 5.00544 9.3578 5.07873 8.54107C5.04256 8.03599 5.13354 7.52989 5.34337 7.06903C5.47399 6.66577 5.7011 6.3005 6.00497 6.00496C6.30207 5.70034 6.66932 5.47318 7.07456 5.34337C7.54316 5.16643 8.0402 5.07674 8.5411 5.07873ZM13.3904 6.14282C12.5947 6.06867 11.795 6.04657 10.9965 6.07666C10.1963 6.04821 9.3952 6.07216 8.59818 6.14834C8.21228 6.14364 7.82891 6.21134 7.46795 6.34792C7.19734 6.41562 6.96155 6.58146 6.80635 6.81324C6.61476 7.00571 6.45739 7.22945 6.34103 7.47483C6.20444 7.83579 6.13675 8.21915 6.14145 8.60506C6.06729 9.40072 6.04519 10.2004 6.07529 10.9989C6.07529 11.9884 6.10073 12.441 6.12006 12.7848C6.1319 12.9955 6.14145 13.1653 6.14145 13.3928C6.13689 13.7783 6.20458 14.1613 6.34103 14.5219C6.57366 15.0202 6.97469 15.4205 7.47346 15.6521C7.83442 15.7887 8.21779 15.8564 8.60369 15.8517C9.39937 15.9259 10.199 15.948 10.9976 15.9179C11.987 15.9179 12.4396 15.8924 12.7835 15.8731C12.9942 15.8613 13.164 15.8517 13.3915 15.8517C13.777 15.8563 14.16 15.7886 14.5206 15.6521C15.0184 15.4203 15.4185 15.0206 15.6508 14.523C15.7874 14.1621 15.8551 13.7787 15.8504 13.3928C15.9246 12.5968 15.9467 11.7967 15.9166 10.9978C15.9166 10.0084 15.8911 9.55578 15.8718 9.2119C15.86 9.00125 15.8504 8.8314 15.8504 8.60395C15.8552 8.21768 15.7875 7.83393 15.6508 7.47263C15.4187 6.97468 15.0185 6.57448 14.5206 6.3424C14.1596 6.20582 13.7763 6.13813 13.3904 6.14282ZM10.9965 7.93905C10.1812 7.9258 9.39549 8.2438 8.81896 8.82033C8.24243 9.39686 7.92442 10.1826 7.93767 10.9978C7.93767 12.6871 9.30714 14.0566 10.9965 14.0566C12.6858 14.0566 14.0553 12.6871 14.0553 10.9978C14.0553 9.30851 12.6858 7.93905 10.9965 7.93905ZM9.57582 12.4199C9.95205 12.7963 10.4652 13.0035 10.9974 12.9938V12.9927C11.5293 13.0024 12.0423 12.7953 12.4185 12.4191C12.7947 12.0429 13.0018 11.53 12.9921 10.998C13.0018 10.4661 12.7947 9.95308 12.4185 9.57689C12.0423 9.20069 11.5293 8.99364 10.9974 9.00331C10.4654 8.99364 9.95242 9.20069 9.57622 9.57689C9.20003 9.95308 8.99297 10.4661 9.00264 10.998C8.99267 11.5301 9.19959 12.0434 9.57582 12.4199ZM14.1892 7.07456C13.7855 7.07456 13.4582 7.40187 13.4582 7.80563C13.4582 8.20938 13.7855 8.53669 14.1892 8.53669C14.593 8.53669 14.9203 8.20938 14.9203 7.80563C14.9167 7.40337 14.5915 7.07816 14.1892 7.07456Z" fill="#25A9E0"/>
</g>
</svg>
