<svg width="168" height="54" viewBox="0 0 168 54" fill="none" xmlns="http://www.w3.org/2000/svg">
<path d="M119.491 17.5024V20.3886H123.235V22.8089H119.491V27.93H116.921V15.082H123.978V17.5024H119.491Z" fill="#9ACA46"/>
<path d="M124.722 21.5056C124.722 17.7258 127.626 14.8586 131.498 14.8586C135.353 14.8586 138.277 17.7258 138.277 21.5056C138.277 25.2854 135.354 28.1534 131.498 28.1534C127.626 28.1534 124.722 25.2854 124.722 21.5056ZM135.633 21.5056C135.633 19.1216 133.846 17.3343 131.499 17.3343C129.136 17.3343 127.348 19.1216 127.348 21.5056C127.348 23.8889 129.136 25.677 131.499 25.677C133.846 25.677 135.633 23.8889 135.633 21.5056Z" fill="#9ACA46"/>
<path d="M139.317 21.5056C139.317 17.7258 142.221 14.8586 146.093 14.8586C149.948 14.8586 152.871 17.7258 152.871 21.5056C152.871 25.2854 149.948 28.1534 146.093 28.1534C142.221 28.1534 139.317 25.2854 139.317 21.5056ZM150.228 21.5056C150.228 19.1216 148.44 17.3343 146.093 17.3343C143.73 17.3343 141.942 19.1216 141.942 21.5056C141.942 23.8889 143.73 25.677 146.093 25.677C148.44 25.677 150.228 23.8889 150.228 21.5056Z" fill="#9ACA46"/>
<path d="M166.126 21.5056C166.126 25.1741 163.315 27.93 159.572 27.93H154.545V15.082H159.572C163.315 15.082 166.126 17.8371 166.126 21.5056ZM163.482 21.5056C163.482 19.2155 161.788 17.5024 159.516 17.5024H157.113V25.5088H159.516C161.788 25.5088 163.482 23.7965 163.482 21.5056Z" fill="#9ACA46"/>
<path d="M165.265 44.1163H130.095C129.462 44.1163 128.949 43.6039 128.949 42.97V31.971C128.949 31.3378 129.462 30.8247 130.095 30.8247H165.265C165.898 30.8247 166.412 31.337 166.412 31.971V42.97C166.412 43.6039 165.898 44.1163 165.265 44.1163Z" fill="#9ACA46"/>
<path d="M134.081 38.7616H133.934V41.6737H132.585V33.8545H135.226C136.687 33.8545 137.799 34.9194 137.799 36.3357C137.799 37.5829 136.915 38.535 135.702 38.7268L137.98 41.6737H136.291L134.081 38.7616ZM133.934 37.5829H135.203C135.895 37.5829 136.405 37.0501 136.405 36.3475C136.405 35.6449 135.895 35.1231 135.203 35.1231H133.934V37.5829Z" fill="white"/>
<path d="M145.005 39.2715H140.222C140.404 40.1099 141.083 40.6657 141.957 40.6657C142.693 40.6657 143.295 40.3254 143.543 39.8383H144.926C144.506 41.0051 143.374 41.8095 141.945 41.8095C140.19 41.8095 138.864 40.5062 138.864 38.7837C138.864 37.0604 140.19 35.7578 141.945 35.7578C143.714 35.7578 145.04 37.0604 145.04 38.7947C145.039 38.9202 145.028 39.135 145.005 39.2715ZM140.234 38.2279H143.668C143.464 37.4346 142.783 36.9017 141.945 36.9017C141.106 36.9017 140.45 37.4353 140.234 38.2279Z" fill="white"/>
<path d="M149.503 37.0502H148.268V41.6731H147V37.0502H145.832V35.8937H147V34.4664L148.268 34.1941V35.8937H149.503V37.0502Z" fill="white"/>
<path d="M156.439 35.8938V41.674H155.17V40.7788C154.706 41.4135 153.992 41.8106 153.141 41.8106C151.51 41.8106 150.298 40.508 150.298 38.7847C150.298 37.0621 151.51 35.7588 153.141 35.7588C153.992 35.7588 154.706 36.1559 155.17 36.7906V35.8954H156.439V35.8938ZM155.17 38.7839C155.17 37.7639 154.411 36.9824 153.391 36.9824C152.359 36.9824 151.6 37.7639 151.6 38.7839C151.6 39.8038 152.36 40.5861 153.391 40.5861C154.411 40.5861 155.17 39.8038 155.17 38.7839Z" fill="white"/>
<path d="M158.161 34.115C158.161 33.6501 158.512 33.3098 158.966 33.3098C159.43 33.3098 159.78 33.6501 159.78 34.115C159.78 34.5689 159.43 34.9194 158.966 34.9194C158.512 34.9194 158.161 34.5689 158.161 34.115ZM158.33 35.8936H159.6V41.6737H158.33V35.8936Z" fill="white"/>
<path d="M162.761 33.5144H161.491V41.6731H162.761V33.5144Z" fill="white"/>
<path d="M123.606 41.6732L123.111 41.0858C122.447 41.6274 121.628 41.8579 120.748 41.8579C118.43 41.8579 116.9 40.4527 116.9 38.3663C116.9 36.9753 117.657 36.1259 118.553 35.5077C118.09 34.7815 117.796 34.0402 117.796 33.3139C117.796 31.8771 119.001 30.8264 120.561 30.8264C122.138 30.8264 123.358 31.8614 123.358 33.2981C123.358 34.5194 122.477 35.2456 121.457 35.8788L123.188 37.9337C123.219 37.7789 123.235 37.6242 123.235 37.4545V36.373H125.305V37.4545C125.305 38.3197 125.058 39.0925 124.672 39.7257L126.309 41.6724H123.606V41.6732ZM121.859 39.6025L119.712 37.0384C119.341 37.3779 119.094 37.7797 119.094 38.3047C119.094 39.1699 119.82 39.8188 120.855 39.8188C121.21 39.8196 121.566 39.7414 121.859 39.6025ZM119.851 33.3147C119.851 33.6549 120.021 34.041 120.33 34.4736C120.887 34.1333 121.288 33.7623 121.288 33.2839C121.288 32.8813 120.963 32.5884 120.561 32.5884C120.175 32.5892 119.851 32.8513 119.851 33.3147Z" fill="#9ACA46"/>
<path d="M1.10522 35.6443H4.8487C4.8487 38.6307 7.07884 40.8617 10.0653 40.8617C13.0517 40.8617 15.2826 38.6307 15.2826 35.6443V16.4099H18.9463V35.6443C18.9463 40.6225 15.0837 44.3667 10.0258 44.3667C4.92843 44.3659 1.10522 40.6225 1.10522 35.6443Z" fill="#25A9E0"/>
<path d="M41.6858 23.5777V43.8881H38.2605V40.0254C36.5885 42.6937 33.7608 44.3657 30.3757 44.3657C24.5607 44.3657 20.2205 39.7862 20.2205 33.7329C20.2205 27.6796 24.5607 23.1001 30.3757 23.1001C33.76 23.1001 36.5877 24.7729 38.2605 27.4404V23.5777H41.6858ZM38.2605 33.7329C38.2605 29.5513 35.1549 26.4046 31.0128 26.4046C26.8311 26.4046 23.7247 29.5505 23.7247 33.7329C23.7247 37.9137 26.8304 41.0604 31.0128 41.0604C35.1549 41.0604 38.2605 37.9137 38.2605 33.7329Z" fill="#25A9E0"/>
<path d="M66.0176 33.7329C66.0176 39.7862 61.637 44.3657 55.8229 44.3657C52.437 44.3657 49.6101 42.6937 47.9373 40.0246V51.4547H44.512V23.5777H47.9373V27.4404C49.6101 24.7721 52.437 23.1001 55.8229 23.1001C61.637 23.1001 66.0176 27.6796 66.0176 33.7329ZM62.473 33.7329C62.473 29.5513 59.3674 26.4046 55.1858 26.4046C51.0437 26.4046 47.9381 29.5505 47.9381 33.7329C47.9381 37.9137 51.0437 41.0603 55.1858 41.0603C59.3666 41.0603 62.473 37.9137 62.473 33.7329Z" fill="#25A9E0"/>
<path d="M77.2471 26.6834H72.5879V43.8874H69.1625V26.6834H64.782V23.5778H69.1625V18.2808H72.5879V23.5778H77.2471V26.6834Z" fill="#25A9E0"/>
<path d="M78.0999 17.2457C78.0999 15.9313 79.0953 14.9753 80.4105 14.9753C81.6847 14.9753 82.6793 15.9313 82.6793 17.2457C82.6793 18.5207 81.6839 19.5161 80.4105 19.5161C79.0961 19.5153 78.0999 18.5199 78.0999 17.2457ZM78.6975 23.5777H82.1228V43.8881H78.6975V23.5777Z" fill="#25A9E0"/>
<path d="M103.906 31.3434V43.8874H100.481V32.4186C100.481 28.7951 98.171 26.4047 94.5475 26.4047C90.804 26.4047 88.3347 28.8346 88.3347 32.4983V43.8874H84.9102V23.5778H88.3347V26.8428C89.8883 24.454 92.4768 23.0994 95.6622 23.0994C100.602 23.0994 103.906 26.3652 103.906 31.3434Z" fill="#25A9E0"/>
<path d="M105.857 17.2457C105.857 15.9313 106.853 14.9753 108.168 14.9753C109.442 14.9753 110.437 15.9313 110.437 17.2457C110.437 18.5207 109.442 19.5161 108.168 19.5161C106.853 19.5153 105.857 18.5199 105.857 17.2457ZM106.455 23.5777H109.88V43.8881H106.455V23.5777Z" fill="#25A9E0"/>
<path d="M44.8624 10.7046C43.9372 8.65053 42.5463 7.42139 42.5463 7.42139C37.074 14.9178 41.9629 20.9562 42.4342 21.5056C42.3537 20.3025 42.2424 15.5651 44.8624 10.7046Z" fill="#9ACA46"/>
<path d="M57.2304 1.83765C50.8636 4.12856 46.6126 8.11043 44.59 13.679C43.3901 16.9836 43.364 19.9274 43.4169 21.1202C48.8466 19.7939 52.7709 17.2488 55.0855 13.5464C58.0325 8.83355 57.5028 3.53176 57.2304 1.83765Z" fill="#9ACA46"/>
</svg>
