<svg width="23" height="22" viewBox="0 0 23 22" fill="none" xmlns="http://www.w3.org/2000/svg">
<path fill-rule="evenodd" clip-rule="evenodd" d="M0.280029 11C0.280029 4.9258 5.20583 0 11.28 0C17.3542 0 22.28 4.9258 22.28 11C22.28 17.0742 17.3542 22 11.28 22C5.20583 22 0.280029 17.0742 0.280029 11ZM5.40456 16.6289H8.08356V8.56908H5.40456V16.6289ZM6.74414 7.46851H6.72668C5.8277 7.46851 5.24628 6.84966 5.24628 6.07622C5.24628 5.28532 5.84549 4.68359 6.76193 4.68359C7.67838 4.68359 8.24234 5.28532 8.2598 6.07622C8.2598 6.84966 7.67838 7.46851 6.74414 7.46851ZM15.0648 16.6289H17.7435V12.0074C17.7435 9.53185 16.4218 8.37991 14.6593 8.37991C13.238 8.37991 12.601 9.16107 12.245 9.71027V8.56908H9.56615C9.60123 9.32523 9.56615 16.6289 9.56615 16.6289H12.245V12.1279C12.245 11.8871 12.2623 11.6464 12.3331 11.4742C12.5268 10.993 12.9676 10.4944 13.7076 10.4944C14.6769 10.4944 15.0648 11.2335 15.0648 12.3171V16.6289Z" fill="#25A9E0"/>
</svg>
