<svg width="84" height="71" viewBox="0 0 84 71" fill="none" xmlns="http://www.w3.org/2000/svg">
<path d="M56.336 45.1095C56.3112 45.0861 56.2837 45.0661 56.2575 45.0448C52.6902 42.0721 48.4719 39.7956 43.8325 38.4451C43.8201 38.4424 43.8126 38.4327 43.8002 38.4299C43.7891 38.4272 43.7788 38.4313 43.7678 38.4286C43.0705 38.2281 42.3635 38.0503 41.647 37.8932C45.7882 35.2831 48.5601 30.6479 48.5601 25.3587C48.5601 24.0826 48.3809 22.8306 48.0633 21.6096L49.3904 21.6089C51.8971 21.6089 53.249 19.6209 53.249 17.7503C53.249 15.8796 51.8971 13.8902 49.3904 13.8902H48.168L45.3265 4.28706C44.7325 2.28056 42.5606 0.647494 40.4846 0.647494C39.6756 0.647494 38.7109 0.922423 37.592 1.24008C36.391 1.58253 35.0281 1.97046 33.9539 1.97046C32.8762 1.97046 31.5092 1.58184 30.302 1.23732C29.1878 0.919672 28.2246 0.646118 27.4232 0.646118C25.347 0.646118 23.176 2.27915 22.5813 4.28568L19.7438 13.8902H18.5215C16.0147 13.8902 14.6628 15.8782 14.6628 17.7489C14.6628 19.6195 16.0147 21.6075 18.5215 21.6075H19.8486C19.5309 22.8285 19.3518 24.0785 19.3518 25.3566C19.3518 30.6457 22.1224 35.281 26.2649 37.8911C25.5503 38.0503 24.842 38.226 24.1441 38.4265C24.133 38.4293 24.1227 38.4251 24.1117 38.4279C24.0993 38.4306 24.0917 38.4403 24.0793 38.443C19.4613 39.786 15.2617 42.0468 11.7055 45C11.6394 45.0496 11.576 45.0958 11.5188 45.1544C4.46368 51.1001 0 59.7869 0 69.4546C0 70.3083 0.691805 70.998 1.54346 70.998H66.3687C67.2204 70.998 67.9122 70.3083 67.9122 69.4546C67.9122 59.7618 63.4251 51.053 56.3363 45.1085L56.336 45.1095ZM23.4277 41.9192L26.288 52.8667C26.465 53.5461 27.0797 54.0202 27.7818 54.0202H40.1295C40.8316 54.0202 41.4462 53.5461 41.6233 52.8674L44.4836 41.9199C47.7806 43.0624 50.818 44.7091 53.4833 46.7846C51.312 53.4648 50.1434 60.5586 50.0002 67.9114H17.8909C17.7476 60.5628 16.579 53.4738 14.4119 46.7987C17.0806 44.7163 20.1227 43.0633 23.4273 41.9196L23.4277 41.9192ZM25.5437 5.16375C25.7677 4.40717 26.7813 3.73467 27.4255 3.73467C27.7962 3.73467 28.6789 3.98617 29.4581 4.20873C30.8597 4.60699 32.4479 5.05901 33.9555 5.05901C35.4618 5.05901 37.0424 4.60837 38.4391 4.21148C39.2219 3.98755 40.1094 3.73604 40.4857 3.73604C41.1292 3.73604 42.1435 4.40924 42.3675 5.16513L44.9501 13.8905H22.9606L25.5437 5.16375ZM17.7492 17.7492C17.7492 17.3971 17.8836 16.9775 18.5209 16.9775H47.0105H47.0154H47.0202H49.3906C50.0279 16.9775 50.1623 17.3971 50.1623 17.7492C50.1623 18.1013 50.0279 18.5209 49.3906 18.5209H18.5214C17.884 18.5209 17.7497 18.1013 17.7497 17.7492H17.7492ZM22.4395 25.357C22.4395 24.0712 22.6525 22.8165 23.0569 21.6079H44.8559C45.2603 22.8164 45.4732 24.0712 45.4732 25.357C45.4719 31.8009 40.3054 37.0424 33.9559 37.0424C27.6063 37.0424 22.4399 31.8009 22.4399 25.357H22.4395ZM41.5185 41.054L38.938 50.9336H28.9752L26.3926 41.054C28.8173 40.4704 31.3426 40.1293 33.9555 40.1293C36.5685 40.1293 39.0937 40.4704 41.5185 41.054ZM11.8805 49.0193C13.694 55.0154 14.6697 61.3547 14.8041 67.9113H3.1269C3.53 60.5736 6.80845 53.9616 11.8805 49.0193ZM53.0865 67.9113C53.2208 61.3467 54.1979 55.0048 56.0143 49.0017C61.0953 53.9469 64.38 60.5639 64.7824 67.9113H53.0865Z" fill="#25A9E0"/>
<path d="M83.3475 1.54346C83.3475 0.691805 82.6557 0 81.8041 0C80.9524 0 80.2606 0.691805 80.2606 1.54346C80.2606 4.8708 78.4905 7.78556 75.8493 9.41792C76.723 7.17859 77.1736 4.35749 77.1736 1.54346C77.1736 0.691805 76.4818 0 75.6302 0C74.7785 0 74.0867 0.691805 74.0867 1.54346C74.0867 7.28795 72.0878 10.8042 70.9998 10.8042C69.9118 10.8042 67.9129 7.28795 67.9129 1.54346C67.9129 0.691805 67.2211 0 66.3694 0C65.5178 0 64.826 0.691805 64.826 1.54346C64.826 4.35749 65.2766 7.17841 66.1503 9.41792C63.5091 7.78558 61.739 4.87098 61.739 1.54346C61.739 0.691805 61.0472 0 60.1956 0C59.3439 0 58.6521 0.691805 58.6521 1.54346C58.6521 7.82825 63.3747 13.0208 69.4563 13.7844V69.4565C69.4563 70.3103 70.1481 71 70.9998 71C71.8514 71 72.5432 70.3103 72.5432 69.4565V13.7844C78.6248 13.021 83.3474 7.82825 83.3474 1.54346H83.3475Z" fill="#25A9E0"/>
</svg>
