<svg width="73" height="73" viewBox="0 0 73 73" fill="none" xmlns="http://www.w3.org/2000/svg">
<path d="M72.0007 31.7664C71.988 28.1848 70.9658 24.6797 69.0509 21.6532C67.1354 18.6267 64.4057 16.2015 61.1743 14.6568C63.9325 11.6984 63.7206 7.05761 63.709 6.85732C63.6757 6.25562 63.195 5.77489 62.5933 5.74161C62.3967 5.73316 57.5525 5.49649 54.6058 8.45476C54.3322 8.73316 54.0802 9.03215 53.853 9.34913C53.2138 6.53658 51.7907 3.96286 49.7494 1.92523L49.1757 1.35152V1.351C48.7113 0.902492 47.9733 0.909361 47.5168 1.36579C47.0604 1.82221 47.0535 2.56021 47.502 3.02462L48.0758 3.59833H48.0763C50.5222 6.03423 51.8931 9.34703 51.884 12.7987V12.8695C46.4111 13.2234 41.3604 15.9329 38.0384 20.2976C37.5597 20.0609 37.0336 19.9362 36.5 19.9331C35.5587 19.9331 34.6553 20.3071 33.9897 20.9727C33.3242 21.6383 32.9501 22.5418 32.9501 23.483V30.583C32.9501 30.8968 32.8254 31.1979 32.6036 31.4198C32.3817 31.6417 32.0806 31.7663 31.7668 31.7663H24.6668C24.0133 31.7663 23.4834 32.2962 23.4834 32.9497C23.4892 33.8546 23.7053 34.7458 24.1142 35.553C19.7206 38.4844 16.6681 43.0371 15.6249 48.2147C15.2276 48.2876 14.8251 48.3272 14.4215 48.333C13.0966 48.3378 11.7971 47.9711 10.6697 47.2744C9.54239 46.5781 8.63317 45.5797 8.04475 44.3926L7.25075 42.8035V42.803C4.70341 37.6936 3.37375 32.0632 3.36685 26.354V25.5045C3.36685 21.934 5.21582 18.6179 8.25287 16.7404C11.2904 14.8629 15.0829 14.6922 18.2768 16.2887L20.5843 17.4425C20.5938 17.4425 20.607 17.4425 20.616 17.4494C20.9292 17.6057 21.2975 17.6057 21.6102 17.4494C21.6208 17.4494 21.6329 17.4494 21.6419 17.4425L23.9493 16.2887H23.9499C25.3831 15.5735 26.9626 15.201 28.5649 15.2C30.8285 15.192 33.0308 15.9374 34.8243 17.3194C35.3442 17.7167 36.088 17.6174 36.4852 17.0976C36.8824 16.5777 36.7831 15.8339 36.2633 15.4367C34.0562 13.7388 31.3468 12.8234 28.5622 12.8334C26.5938 12.8355 24.653 13.2935 22.8917 14.1715L22.3 14.4684V11.65C22.3026 9.454 23.1764 7.34875 24.729 5.79568C26.2821 4.24314 28.3873 3.36937 30.5833 3.36667C31.2368 3.36667 31.7667 2.8368 31.7667 2.18333C31.7667 1.52986 31.2368 1 30.5833 1C28.7038 1.00211 26.8585 1.50133 25.2345 2.44745C23.6101 3.39359 22.2657 4.75286 21.337 6.38626C20.9276 5.39364 20.3306 4.48874 19.5783 3.72167C16.6316 0.763333 11.7921 1 11.5909 1.00852C10.9892 1.0418 10.5085 1.52253 10.4752 2.12423C10.4667 2.3292 10.2301 7.16659 13.1883 10.1117C15.0521 11.7705 17.4394 12.7219 19.9333 12.8001V14.4684L19.3417 14.1715C15.4134 12.2052 10.7472 12.4139 7.01012 14.723C3.27308 17.0315 0.998918 21.1119 1 25.5046V26.354C1.00687 32.4328 2.42162 38.4271 5.13315 43.8674L5.92714 45.4553C6.71163 47.036 7.92299 48.3651 9.42427 49.2922C10.9257 50.2193 12.6567 50.7069 14.4212 50.7C14.7181 50.7 15.0128 50.6725 15.3097 50.6445C15.2838 51.055 15.2696 51.4729 15.2696 51.8833C15.2696 62.976 24.7933 72 36.4993 72C48.2052 72 57.7289 62.976 57.7289 51.8833C57.7289 51.2917 57.6925 50.7069 57.6391 50.1247C61.7328 49.0967 65.3673 46.7337 67.9679 43.4093C70.5686 40.0844 71.9871 35.9876 71.9987 31.7667L72.0007 31.7664ZM14.8572 8.44326C13.649 7.03651 12.9506 5.263 12.8741 3.41037C14.7267 3.48909 16.5001 4.18588 17.9106 5.38985C19.1188 6.7966 19.8172 8.57011 19.8937 10.4227C18.0411 10.344 16.2677 9.64723 14.8572 8.44326ZM56.2739 10.1237V10.1232C57.6806 8.91504 59.4541 8.21661 61.3067 8.14007C61.2286 9.99324 60.5312 11.7661 59.3273 13.1766C57.9205 14.3848 56.147 15.0832 54.2944 15.1597C54.3726 13.3066 55.0699 11.5337 56.2739 10.1232V10.1237ZM31.7674 34.1339C32.7087 34.1339 33.6121 33.7599 34.2777 33.0943C34.9432 32.4286 35.3173 31.5252 35.3173 30.584V23.484C35.3173 22.8305 35.8472 22.3006 36.5006 22.3006C37.1541 22.3006 37.684 22.8305 37.684 23.484V30.584C37.684 31.5253 38.058 32.4287 38.7236 33.0943C39.3892 33.7598 40.2926 34.1339 41.2339 34.1339H46.9482C46.7026 34.8254 46.2488 35.4245 45.6497 35.8482C45.0501 36.2719 44.3343 36.4995 43.6006 36.5006H41.2339C40.8229 36.4985 40.4399 36.7098 40.2228 37.059C40.0057 37.4082 39.9851 37.845 40.1689 38.2127L41.6846 41.2339C41.0438 41.2165 40.4193 41.0253 39.8789 40.6798C39.3384 40.3343 38.9021 39.8478 38.6173 39.273L37.5656 37.1552C37.3653 36.7532 36.9554 36.4996 36.5064 36.4996C36.0579 36.4996 35.6474 36.7532 35.4472 37.1552L34.3891 39.2719H34.3896C34.1043 39.8478 33.6674 40.3348 33.1259 40.6809C32.5845 41.0264 31.9585 41.2176 31.3166 41.234L32.8322 38.2127C33.0161 37.8451 32.9954 37.4082 32.7783 37.059C32.5612 36.7098 32.1782 36.4985 31.7672 36.5006H29.4005C28.6668 36.4996 27.9509 36.2719 27.3514 35.8482C26.7523 35.4245 26.2986 34.8255 26.0529 34.1339L31.7674 34.1339ZM36.5007 69.6339C26.099 69.6339 17.6377 61.6712 17.6377 51.8839C17.6884 46.0376 20.6689 40.6068 25.5735 37.4229C26.6342 38.3484 27.9935 38.8609 29.4014 38.8667H29.8536L28.3427 41.8879H28.3422C28.1589 42.2545 28.1784 42.6904 28.3945 43.039C28.61 43.3882 28.9914 43.6 29.4014 43.6H31.2096C32.309 43.6037 33.3876 43.2989 34.3228 42.721C35.2584 42.1431 36.0127 41.3142 36.5014 40.3294C36.99 41.3141 37.7444 42.143 38.6799 42.721C39.615 43.2989 40.6937 43.6037 41.7931 43.6H43.6014C44.0124 43.6022 44.3954 43.3908 44.6125 43.0417C44.8296 42.6925 44.8502 42.2556 44.6664 41.8879L43.1491 38.8667H43.6013C45.0092 38.8609 46.3679 38.349 47.4293 37.424C52.3353 40.6052 55.3158 46.037 55.365 51.8836C55.365 61.6709 46.9032 69.6336 36.502 69.6336L36.5007 69.6339ZM57.2814 47.7781C56.1535 42.7785 53.1486 38.4023 48.8877 35.5532C49.2966 34.746 49.5121 33.8548 49.5174 32.9499C49.5174 32.6361 49.3927 32.335 49.1708 32.1131C48.949 31.8912 48.6478 31.7666 48.3341 31.7666H41.2341C40.5806 31.7666 40.0507 31.2367 40.0507 30.5832V23.4832C40.0486 22.9687 39.9334 22.461 39.7137 21.9956C42.5917 18.069 47.053 15.6093 51.91 15.2706C51.8841 15.661 51.8778 16.0519 51.8926 16.4423C51.9258 17.044 52.4066 17.5248 53.0083 17.5581C53.0389 17.5581 53.1752 17.5676 53.3939 17.5676C55.3316 17.5707 57.2446 17.1354 58.9899 16.2944C63.3846 17.9749 66.8575 21.4456 68.54 25.8398C70.2225 30.2339 69.9564 35.1363 67.8079 39.3224C65.6599 43.5084 61.8319 46.583 57.2815 47.7778L57.2814 47.7781Z" fill="#25A9E0" stroke="#25A9E0"/>
</svg>
