<svg width="90" height="64" viewBox="0 0 90 64" fill="none" xmlns="http://www.w3.org/2000/svg">
<path fill-rule="evenodd" clip-rule="evenodd" d="M54.375 35.625V37.5C54.375 44.7489 60.2511 50.625 67.5 50.625H73.125C73.1325 50.625 75 50.4877 75 48.7274V46.875C75 39.6261 69.1239 33.75 61.875 33.75H56.25C55.2154 33.75 54.375 34.5904 54.375 35.625ZM58.125 37.5H61.875C67.0521 37.5 71.25 41.6979 71.25 46.875H67.5C62.3229 46.875 58.125 42.6771 58.125 37.5Z" fill="#25A9E0"/>
<path fill-rule="evenodd" clip-rule="evenodd" d="M0 35.625V37.5C0 44.7489 5.87614 50.625 13.125 50.625H18.75C18.7575 50.625 20.625 50.4877 20.625 48.7274V46.875C20.625 39.6261 14.7489 33.75 7.5 33.75H1.875C0.840407 33.75 0 34.5904 0 35.625ZM3.75 37.5H7.5C12.6771 37.5 16.875 41.6979 16.875 46.875H13.125C7.94786 46.875 3.75 42.6771 3.75 37.5Z" fill="#25A9E0"/>
<path fill-rule="evenodd" clip-rule="evenodd" d="M1.875 63.75H88.125C89.1596 63.75 90 62.9096 90 61.875C90 60.8404 89.1596 60 88.125 60H1.875C0.840407 60 0 60.8404 0 61.875C0 62.9096 0.840407 63.75 1.875 63.75Z" fill="#25A9E0"/>
<path fill-rule="evenodd" clip-rule="evenodd" d="M43.125 26.2457V61.875C43.125 62.9096 43.9654 63.75 45 63.75C46.0346 63.75 46.875 62.9096 46.875 61.875V26.2457C46.875 25.2111 46.0346 24.3707 45 24.3707C43.9654 24.3707 43.125 25.2111 43.125 26.2457Z" fill="#25A9E0"/>
<path fill-rule="evenodd" clip-rule="evenodd" d="M71.25 48.75V61.875C71.25 62.9096 72.0904 63.75 73.125 63.75C74.1596 63.75 75 62.9096 75 61.875V48.75C75 47.7154 74.1596 46.875 73.125 46.875C72.0904 46.875 71.25 47.7154 71.25 48.75Z" fill="#25A9E0"/>
<path fill-rule="evenodd" clip-rule="evenodd" d="M16.875 48.75V61.875C16.875 62.9096 17.7154 63.75 18.75 63.75C19.7846 63.75 20.625 62.9096 20.625 61.875V48.75C20.625 47.7154 19.7846 46.875 18.75 46.875C17.7154 46.875 16.875 47.7154 16.875 48.75Z" fill="#25A9E0"/>
<path fill-rule="evenodd" clip-rule="evenodd" d="M84.3707 37.5H88.1241C89.1587 37.5 89.9991 38.3404 89.9991 39.375V39.3783C89.9991 46.6255 84.1247 52.4999 76.8776 52.4999H73.1242C72.6068 52.4999 72.1381 52.2898 71.7983 51.9525C71.5095 51.6921 71.281 51.3071 71.2525 50.7429L71.2491 50.6207C71.2491 43.3736 77.1236 37.4991 84.3707 37.4991V37.5ZM86.0616 41.25H84.3707C79.8347 41.25 76.053 44.4709 75.1867 48.75H76.8775C81.4135 48.75 85.1952 45.529 86.0616 41.25V41.25Z" fill="#25A9E0"/>
<path fill-rule="evenodd" clip-rule="evenodd" d="M29.9957 37.5H33.7492C34.7837 37.5 35.6242 38.3404 35.6242 39.375V39.3783C35.6242 46.6255 29.7497 52.4999 22.5026 52.4999H18.7492C18.2318 52.4999 17.7631 52.2898 17.4233 51.9525C17.1345 51.6921 16.906 51.3071 16.8775 50.7429L16.8741 50.6207C16.8741 43.3736 22.7486 37.4991 29.9957 37.4991L29.9957 37.5ZM31.6866 41.25H29.9957C25.4597 41.25 21.678 44.4709 20.8117 48.75H22.5025C27.0385 48.75 30.8202 45.529 31.6866 41.25Z" fill="#25A9E0"/>
<path fill-rule="evenodd" clip-rule="evenodd" d="M78.75 0C79.7846 0 80.625 0.840407 80.625 1.875V1.87835C80.625 8.83835 77.8594 15.5157 72.9375 20.4374C68.0156 25.3591 61.341 28.1249 54.3784 28.1249H45C45.5081 28.1249 45 28.1249 45 28.1249C45 28.1249 43.125 28.0102 43.125 26.2466C43.125 19.2866 45.8906 12.6092 50.8125 7.68751C55.7344 2.76579 62.409 6.53948e-06 69.3716 6.53948e-06L78.75 0ZM76.7963 3.75C76.356 9.03171 74.0607 14.0098 70.2865 17.7866C66.0677 22.0054 60.3456 24.375 54.3792 24.375H46.9547C47.395 19.0933 49.6902 14.1152 53.4645 10.3384C57.6833 6.11957 63.4054 3.75 69.3717 3.75H76.7963Z" fill="#25A9E0"/>
<path fill-rule="evenodd" clip-rule="evenodd" d="M45 30H37.4966C25.0729 30 15.0009 19.9278 15.0009 7.50432V7.50098C15.0009 6.46638 15.8413 5.62598 16.8759 5.62598H24.3793C36.8029 5.62598 46.875 15.6983 46.875 28.1217V28.125C46.875 29.1596 46.0346 30 45 30V30ZM18.8421 9.37504H24.3793C34.1008 9.37504 42.0947 16.7754 43.0339 26.25H37.4968C27.7753 26.25 19.7814 18.8497 18.8421 9.37504V9.37504Z" fill="#25A9E0"/>
</svg>
