<svg width="71" height="73" viewBox="0 0 71 73" fill="none" xmlns="http://www.w3.org/2000/svg">
<path d="M66.1531 25.8581L66.2752 25.8643C66.6982 25.9095 67.2833 26.0285 67.891 26.2703C68.8816 26.664 69.611 27.2717 69.8553 28.2191C70.1442 29.3422 69.611 30.5248 68.3472 31.7843C67.9582 32.1718 65.1291 34.9225 64.2483 35.8063C63.56 36.4971 62.9461 37.131 62.3846 37.7346C59.8695 40.4385 58.4893 42.4891 58.4893 43.5468C58.4893 43.8835 58.494 44.1083 58.515 44.9178C58.5807 47.4154 58.5366 48.8007 58.2271 50.4483C57.7846 52.8073 56.8345 54.8049 55.2136 56.4212C54.1393 57.4919 53.1533 58.8983 51.4416 61.6555C51.2342 61.9897 51.2342 61.9897 51.0264 62.3259C47.897 67.379 46.4013 69.294 44.145 70.2723C43.5429 70.5331 41.6848 71.399 41.3081 71.554C40.3483 71.9492 39.642 72.0888 38.8783 71.9446C37.9462 71.769 37.1425 71.207 35.9634 70.0316C32.599 66.6774 29.7498 61.5323 29.7498 57.6741C29.7498 56.8405 29.7673 56.4587 29.9028 53.8851C29.9762 52.488 30.0162 51.5744 30.0378 50.6305C30.1302 46.6131 29.757 44.0313 28.8783 43.1552C28.0591 42.3386 27.4381 41.4491 26.8719 40.3651C26.6255 39.8929 26.5644 39.7615 26.0604 38.6534C25.4085 37.2193 25.0159 36.548 24.3851 35.9192C22.4239 33.9636 21.3594 33.7516 18.0344 35.1328C13.5217 37.0073 9.46696 36.3796 6.41304 33.3348C2.07997 29.0151 -1.04477 20.3624 2.61121 16.7184C3.25536 16.0763 7.48064 12.2776 8.20989 11.3732C8.88432 10.537 9.18562 9.83226 9.18562 9.09066C9.18562 5.56043 13.3477 2.77232 17.5934 2.77232C18.507 2.77232 19.6721 2.57318 21.4311 2.15332C21.6708 2.09635 21.9182 2.0363 22.2426 1.95623C26.9713 0.791108 27.8747 0.661248 28.9465 1.72936C29.3627 2.1446 30.9087 4.37214 30.8999 4.36031C32.0984 5.95613 33.1547 6.73518 34.3558 6.73518C35.6733 6.73518 36.6203 6.63714 38.0123 6.40566C38.5836 6.30968 38.872 6.26143 39.1605 6.21832C39.9324 6.10283 40.5725 6.04586 41.2685 6.04586C42.2858 6.04586 42.4911 6.08076 47.4641 7.01286C48.0118 7.11551 48.4763 7.20072 48.9192 7.27975C50.1598 7.50046 51.1884 7.66214 52.0999 7.773C54.0421 8.00911 55.6132 9.05617 56.243 10.773L61.4429 24.9639C61.6877 25.5552 62.1435 25.858 62.8118 25.858L66.1531 25.8581ZM62.8122 28.1576C61.2164 28.1576 59.9209 27.2968 59.3014 25.7997L54.084 11.5641C53.7807 10.7357 52.9687 10.1952 51.8226 10.0557C50.8622 9.93868 49.7951 9.77135 48.5166 9.54398C48.066 9.4634 47.5948 9.37717 47.0405 9.27349C42.4242 8.40812 42.0582 8.3455 41.2688 8.3455C40.6996 8.3455 40.1689 8.39272 39.5016 8.4923C39.2342 8.53284 38.9668 8.57699 38.3899 8.6745C36.8834 8.92497 35.8185 9.03482 34.3562 9.03482C32.2461 9.03482 30.6529 7.85995 29.0618 5.74176C28.9407 5.58059 27.5666 3.60091 27.3234 3.35809C27.2028 3.23798 25.8775 3.42943 22.7929 4.18907C22.4639 4.27017 22.2118 4.33175 21.965 4.39026C20.0397 4.84964 18.7396 5.07188 17.5939 5.07188C14.4686 5.07188 11.4855 7.07003 11.4855 9.09078C11.4855 10.4185 10.9789 11.6032 10.0001 12.8165C9.13423 13.8908 4.76276 17.8204 4.23508 18.3465C1.81711 20.7574 4.49582 28.1771 8.03691 31.7069C10.4047 34.0674 13.4657 34.5417 17.1526 33.0101C21.3378 31.2717 23.3909 31.6808 26.009 34.2912C26.8913 35.1715 27.3943 36.0306 28.1539 37.7024C28.6358 38.7618 28.6923 38.8834 28.9104 39.3012C29.3754 40.1912 29.8646 40.8918 30.502 41.5272C32.0208 43.0413 32.4447 45.9799 32.337 50.6835C32.3144 51.6561 32.2739 52.5882 32.1994 54.0069C32.067 56.5193 32.0496 56.9017 32.0496 57.6747C32.0496 60.8088 34.6139 65.4395 37.5873 68.4035C38.4619 69.2755 38.9535 69.6194 39.3051 69.6856C39.5407 69.7303 39.8477 69.6692 40.4328 69.4285C40.7505 69.2976 42.5818 68.444 43.2306 68.1628C44.8561 67.4581 46.246 65.6791 49.0716 61.1161C49.2795 60.7799 49.2795 60.7799 49.4884 60.4432C51.2951 57.533 52.3468 56.0328 53.5904 54.7932C54.8557 53.5321 55.605 51.9553 55.9674 50.0249C56.2379 48.5841 56.2779 47.3205 56.2169 44.9785C56.1948 44.146 56.1902 43.9129 56.1902 43.5474C56.1902 41.6622 57.7577 39.3336 60.7013 36.1687C61.2823 35.5446 61.9136 34.8922 62.6199 34.1835C63.5166 33.2837 66.3499 30.5294 66.724 30.1564C67.4708 29.4122 67.6725 28.9646 67.6284 28.7937C67.6083 28.7152 67.4189 28.5576 67.0422 28.4077C66.6932 28.2691 66.3242 28.1891 66.086 28.1583L62.8122 28.1576Z" fill="#25A9E0" stroke="#25A9E0"/>
<path d="M63.4739 52.7839C63.3132 53.0056 63.2244 53.1278 63.1454 53.2351C62.8462 53.6411 62.6137 53.9254 62.357 54.1815C62.0645 54.4731 61.8207 55.1388 61.5317 56.4163C61.4701 56.692 61.4701 56.692 61.408 56.9717C61.0338 58.6532 60.7993 59.3527 60.1972 59.9528C59.726 60.4225 59.8646 61.0081 61.234 62.3734C61.3059 62.4448 61.8576 63.0032 62.0019 63.1438C62.2426 63.3794 62.4258 63.5416 62.587 63.6602C63.2019 64.1134 63.7064 63.9748 65.3129 62.3734C65.896 61.7919 66.2004 61.1883 66.3056 60.5051C66.419 59.7696 66.3256 59.053 66.0053 57.7278C65.4967 55.6233 65.4202 55.0099 65.8488 54.0276C66.4642 52.6151 66.3061 51.8755 65.6419 51.5675C64.8423 51.1974 64.4568 51.4335 63.4739 52.7839V52.7839ZM66.608 49.481C68.5697 50.3895 69.0219 52.5031 67.9564 54.9468C67.8239 55.2507 67.8789 55.6926 68.2402 57.1873C68.6277 58.7907 68.7509 59.7347 68.5784 60.8546C68.3993 62.0207 67.8686 63.0724 66.9365 64.0014C64.6196 66.3116 62.9361 66.7745 61.2223 65.5109C60.9606 65.3179 60.7055 65.092 60.3949 64.7887C60.2338 64.6311 59.6697 64.0604 59.6107 64.0013C57.455 61.8523 56.9935 59.8998 58.5739 58.3246C58.7242 58.1742 58.9039 57.6384 59.1636 56.4717C59.2247 56.195 59.2247 56.195 59.2888 55.9091C59.6779 54.1907 60.0156 53.2688 60.7337 52.5529C60.8897 52.3973 61.0591 52.1895 61.2952 51.8697C61.3681 51.7711 61.4502 51.6582 61.615 51.4309C63.1742 49.2884 64.4734 48.493 66.608 49.4809L66.608 49.481Z" fill="#25A9E0" stroke="#25A9E0"/>
</svg>
