<svg width="103" height="48" viewBox="0 0 103 48" fill="none" xmlns="http://www.w3.org/2000/svg">
<path d="M51.0913 4.70667C58.9897 4.70667 65.5442 11.2611 65.5442 19.1595C65.5442 24.0329 63.0235 28.4026 59.3262 30.9238C65.5442 33.4445 70.5861 38.6544 72.6029 45.2087C72.9387 46.3853 72.435 47.5615 71.2583 47.8978C70.0816 48.2337 68.9055 47.7299 68.5691 46.5533C66.2163 38.8227 58.9898 33.6129 51.0918 33.6129C43.025 33.6129 35.799 38.8227 33.4454 46.5533C33.1096 47.7299 31.9329 48.2337 30.7563 47.8978C29.5796 47.562 29.0759 46.3853 29.4117 45.2087C31.4286 38.6542 36.4699 33.4444 42.6884 30.9238C38.9911 28.4032 36.4704 24.0336 36.4704 19.1595C36.4704 11.2611 43.0249 4.70667 51.0914 4.70667H51.0913ZM51.0913 9.07622C45.3771 9.07622 40.8395 13.6138 40.8395 19.1594C40.8395 24.8736 45.3771 29.4112 51.0913 29.4112C56.637 29.4112 61.1745 24.8736 61.1745 19.1594C61.1745 13.6137 56.6369 9.07622 51.0913 9.07622V9.07622Z" fill="#25A9E0"/>
<path d="M81.677 0.00109404C89.0716 0.00109404 95.2895 6.0512 95.2895 13.6137C95.2895 18.1513 93.1048 22.1843 89.7438 24.5371C95.458 26.8899 99.9956 31.7639 101.844 37.9819C102.348 38.99 101.676 40.1666 100.499 40.5026C99.3226 41.0069 98.1465 40.3346 97.8101 39.158C95.6253 32.0997 89.0709 27.2258 81.6765 27.2258C77.9792 27.2258 74.4497 28.4024 71.4247 30.5866C70.5845 31.2589 69.2399 31.0909 68.5677 30.0822C67.7275 29.242 68.0633 27.8975 68.9035 27.2252C70.4161 26.0486 71.9286 25.2083 73.4411 24.5361C70.0803 22.1833 67.8954 18.1502 67.8954 13.6126C67.8954 6.04996 74.1134 0 81.6758 0L81.677 0.00109404ZM81.677 4.20277C76.4672 4.20277 72.2661 8.40445 72.2661 13.6137C72.2661 18.8235 76.4677 23.0246 81.677 23.0246C86.7189 23.0246 90.92 18.8229 90.92 13.6137C90.92 8.40386 86.7183 4.20277 81.677 4.20277Z" fill="#25A9E0"/>
<path d="M20.5042 4.20407C15.2944 4.20407 11.0933 8.40574 11.0933 13.615C11.0933 18.8248 15.2949 23.0259 20.5042 23.0259C25.5461 23.0259 29.7472 18.8242 29.7472 13.615C29.7472 8.40516 25.5456 4.20407 20.5042 4.20407ZM33.1086 27.2279C33.9488 27.9001 34.2853 29.2448 33.4445 30.0849C32.7722 31.093 31.4276 31.2615 30.5875 30.5892C27.5624 28.4045 24.033 27.2284 20.5043 27.2284C12.9417 27.2284 6.38732 32.1018 4.20298 39.1606C3.86712 40.3373 2.69045 41.009 1.51383 40.5052C0.337182 40.1693 -0.334602 38.9927 0.169244 37.9845C2.01768 31.7665 6.55511 26.8926 12.2693 24.5398C8.9085 22.187 6.72358 18.1539 6.72358 13.6164C6.72358 6.05374 12.9416 0.00378418 20.5041 0.00378418C27.8987 0.00378418 34.1166 6.05389 34.1166 13.6164C34.1166 18.1539 31.9319 22.187 28.5709 24.5398C30.0834 25.2121 31.596 26.0523 33.1085 27.229L33.1086 27.2279Z" fill="#25A9E0"/>
</svg>
