<svg width="54" height="54" viewBox="0 0 54 54" fill="none" xmlns="http://www.w3.org/2000/svg">
<path d="M7.52548 13.6363C7.52548 10.2612 10.2602 7.52648 13.6353 7.52378H16.4159C18.0292 7.52378 19.5749 6.88335 20.7206 5.7484L22.6635 3.80277C25.0442 1.40857 28.9139 1.39776 31.3081 3.77845L31.3108 3.78115L31.3351 3.80277L33.2807 5.7484C34.4265 6.88605 35.9722 7.52378 37.5854 7.52378H40.3634C43.7385 7.52378 46.4759 10.2585 46.4759 13.6363V16.4115C46.4759 18.0248 47.1136 19.5732 48.2513 20.7189L50.1969 22.6645C52.5911 25.0452 52.6046 28.9149 50.2239 31.3091L50.2212 31.3118L50.1969 31.3361L48.2513 33.2817C47.1136 34.4248 46.4759 35.9705 46.4759 37.5837V40.3644C46.4759 43.7395 43.7412 46.4742 40.3661 46.4742H40.3634H37.58C35.9668 46.4742 34.4184 47.1146 33.2753 48.2523L31.3297 50.1952C28.9517 52.5894 25.0848 52.6029 22.6906 50.2276C22.6879 50.2249 22.6852 50.2222 22.6825 50.2195L22.6581 50.1952L20.7152 48.2523C19.5722 47.1146 18.0238 46.4769 16.4105 46.4742H13.6353C10.2602 46.4742 7.52548 43.7395 7.52548 40.3644V37.5783C7.52548 35.9651 6.88505 34.4194 5.7474 33.2763L3.80447 31.3307C1.41027 28.9527 1.39676 25.0858 3.77475 22.6916C3.77475 22.6889 3.77745 22.6862 3.78015 22.6835L3.80447 22.6591L5.7474 20.7135C6.88505 19.5678 7.52548 18.0221 7.52548 16.4061V13.6363" stroke="#25A9E0" stroke-width="3" stroke-linecap="round" stroke-linejoin="round"/>
<path d="M20.0557 33.9458L33.9453 20.0562" stroke="#25A9E0" stroke-width="3" stroke-linecap="round" stroke-linejoin="round"/>
<path d="M33.7394 33.7519H33.7637" stroke="#25A9E0" stroke-width="3" stroke-linecap="round" stroke-linejoin="round"/>
<path d="M20.2281 20.2405H20.2525" stroke="#25A9E0" stroke-width="3" stroke-linecap="round" stroke-linejoin="round"/>
</svg>
