<svg width="60" height="54" viewBox="0 0 60 54" fill="none" xmlns="http://www.w3.org/2000/svg">
<path d="M23.9791 43.9894H2.10156" stroke="#25A9E0" stroke-width="3" stroke-linecap="round" stroke-linejoin="round"/>
<path d="M33.7383 10.3348H55.6158" stroke="#25A9E0" stroke-width="3" stroke-linecap="round" stroke-linejoin="round"/>
<path fill-rule="evenodd" clip-rule="evenodd" d="M18.4107 10.1467C18.4107 5.64791 14.7366 2 10.2054 2C5.67417 2 2 5.64791 2 10.1467C2 14.6455 5.67417 18.2934 10.2054 18.2934C14.7366 18.2934 18.4107 14.6455 18.4107 10.1467Z" stroke="#25A9E0" stroke-width="3" stroke-linecap="round" stroke-linejoin="round"/>
<path fill-rule="evenodd" clip-rule="evenodd" d="M57.5562 43.8534C57.5562 39.3546 53.8849 35.7067 49.3537 35.7067C44.8197 35.7067 41.1455 39.3546 41.1455 43.8534C41.1455 48.3522 44.8197 52.0001 49.3537 52.0001C53.8849 52.0001 57.5562 48.3522 57.5562 43.8534Z" stroke="#25A9E0" stroke-width="3" stroke-linecap="round" stroke-linejoin="round"/>
</svg>
