<svg width="51" height="54" viewBox="0 0 51 54" fill="none" xmlns="http://www.w3.org/2000/svg">
<path d="M18.424 48.9285V41.2617C18.424 39.3116 19.9929 37.7271 21.9367 37.714H29.057C31.0101 37.714 32.5934 39.3023 32.5934 41.2617V41.2617V48.9523C32.5929 50.608 33.9102 51.9612 35.5601 52H40.307C45.039 52 48.875 48.1517 48.875 43.4046V43.4046V21.5946C48.8497 19.7271 47.9757 17.9734 46.5016 16.8326L30.2674 3.71325C27.4234 1.42892 23.3804 1.42892 20.5364 3.71325L4.37342 16.8564C2.89373 17.9926 2.01822 19.7492 2 21.6184V43.4046C2 48.1517 5.83604 52 10.568 52H15.3149C17.0058 52 18.3766 50.6248 18.3766 48.9285V48.9285" stroke="#25A9E0" stroke-width="3" stroke-linecap="round" stroke-linejoin="round"/>
</svg>
