<svg width="60" height="60" viewBox="0 0 60 60" fill="none" xmlns="http://www.w3.org/2000/svg">
<path d="M4.42969 16.5703L29.6484 1.08984C29.8711 0.960938 30.1289 0.960938 30.3516 1.08984L55.6406 16.582L37.8399 18.3398L4.42969 16.5703Z" fill="#8B8893"/>
<path d="M30.3516 1.08984C30.1289 0.960938 29.8711 0.960938 29.6484 1.08984L28.2422 1.95703L52.125 16.582H55.6406L30.3516 1.08984Z" fill="#787681"/>
<path d="M14.4727 24.7617H9.43359V50.8242H14.4727V24.7617Z" fill="#DADADC"/>
<path d="M50.5664 24.7617H45.5273V50.8242H50.5664V24.7617Z" fill="#DADADC"/>
<path d="M50.5664 24.7617H47.9883V50.8242H50.5664V24.7617Z" fill="#C8C5CC"/>
<path d="M43.5352 20.9062H52.4414V23.0039C52.4414 23.9766 51.6562 24.7617 50.6836 24.7617H45.293C44.3203 24.7617 43.5352 23.9766 43.5352 23.0039V20.9062Z" fill="#787681"/>
<path d="M48.9258 20.9062V23.0039C48.9258 23.9766 48.1406 24.7617 47.168 24.7617H50.6836C51.6562 24.7617 52.4414 23.9766 52.4414 23.0039V20.9062H48.9258Z" fill="#57565C"/>
<path d="M7.55859 20.9062H16.4648V23.0039C16.4648 23.9766 15.6797 24.7617 14.707 24.7617H9.31641C8.34375 24.7617 7.55859 23.9766 7.55859 23.0039V20.9062Z" fill="#787681"/>
<path d="M12.9492 20.9062V23.0039C12.9492 23.9766 12.1641 24.7617 11.1914 24.7617H14.707C15.6797 24.7617 16.4648 23.9766 16.4648 23.0039V20.9062H12.9492Z" fill="#57565C"/>
<path d="M45.293 48.1758H50.6836C51.6562 48.1758 52.4414 48.9609 52.4414 49.9336V52.0312H43.5352V49.9336C43.5352 48.9609 44.3203 48.1758 45.293 48.1758Z" fill="#787681"/>
<path d="M50.6836 48.1758H47.168C48.1406 48.1758 48.9258 48.9609 48.9258 49.9336V52.0312H52.4414V49.9336C52.4414 48.9609 51.6562 48.1758 50.6836 48.1758Z" fill="#57565C"/>
<path d="M9.31641 48.1758H14.707C15.6797 48.1758 16.4648 48.9609 16.4648 49.9336V52.0312H7.55859V49.9336C7.55859 48.9609 8.34375 48.1758 9.31641 48.1758Z" fill="#787681"/>
<path d="M14.707 48.1758H11.1914C12.1641 48.1758 12.9492 48.9609 12.9492 49.9336V52.0312H16.4648V49.9336C16.4648 48.9609 15.6797 48.1758 14.707 48.1758Z" fill="#57565C"/>
<path d="M30 12.2461C31.4562 12.2461 32.6367 11.0656 32.6367 9.60938C32.6367 8.15316 31.4562 6.97266 30 6.97266C28.5438 6.97266 27.3633 8.15316 27.3633 9.60938C27.3633 11.0656 28.5438 12.2461 30 12.2461Z" fill="white"/>
<path d="M30 6.97266C29.6953 6.97266 29.4023 7.01953 29.1211 7.125C30.4922 7.60547 31.207 9.11719 30.7266 10.4883C30.457 11.2383 29.8711 11.8242 29.1211 12.0937C30.4922 12.5742 32.0039 11.8594 32.4844 10.4883C32.9648 9.11719 32.25 7.60547 30.8789 7.125C30.5977 7.01953 30.3047 6.97266 30 6.97266Z" fill="#E1E1E3"/>
<path d="M53.8477 20.918H6.15234C5.17969 20.918 4.39453 20.1328 4.39453 19.1602L4.42969 16.5703H55.6406L55.6055 19.1602C55.6055 20.1328 54.8203 20.918 53.8477 20.918Z" fill="#AEADB3"/>
<path d="M52.125 16.5703L52.0898 19.1602C52.0898 20.1328 51.3047 20.918 50.332 20.918H53.8477C54.8203 20.918 55.6055 20.1328 55.6055 19.1602L55.6406 16.5703H52.125Z" fill="#8B8893"/>
<path d="M59.1211 59.1211H0.878906L2.15625 56.5781C2.44922 55.9805 3.05859 55.6055 3.72656 55.6055H56.2852C56.9531 55.6055 57.5625 55.9805 57.8555 56.5781L59.1211 59.1211Z" fill="#AEADB3"/>
<path d="M57.8438 56.5781C57.5508 55.9805 56.9414 55.6055 56.2734 55.6055H52.7578C53.4258 55.6055 54.0352 55.9805 54.3281 56.5781L55.6055 59.1211H59.1211L57.8438 56.5781Z" fill="#8B8893"/>
<path d="M55.6055 55.6055H4.39453L5.66016 53.0625C5.95312 52.4648 6.5625 52.0898 7.23047 52.0898H52.7578C53.4258 52.0898 54.0352 52.4648 54.3281 53.0625L55.6055 55.6055Z" fill="#DADADC"/>
<path d="M54.3281 53.0625C54.0352 52.4648 53.4258 52.0898 52.7578 52.0898H49.2422C49.9102 52.0898 50.5195 52.4648 50.8125 53.0625L52.0898 55.6055H55.6055L54.3281 53.0625Z" fill="#C8C5CC"/>
<path d="M30 46.1367C24.6562 46.1367 20.332 41.8125 20.332 36.4688C20.332 31.125 24.6562 26.8008 30 26.8008C35.3438 26.8008 39.668 31.125 39.668 36.4688C39.668 39.0352 38.6484 41.4961 36.832 43.3008C35.0273 45.1289 32.5664 46.1484 30 46.1367Z" fill="#FED947"/>
<path d="M36.832 29.6367C35.0273 27.8203 32.5664 26.8008 30 26.8008C29.5078 26.8008 29.0156 26.8359 28.5352 26.9063C33.8086 27.7148 37.4297 32.6602 36.6211 37.9336C35.9766 42.1055 32.707 45.375 28.5352 46.0195C29.0156 46.0898 29.5078 46.125 30 46.125C35.3438 46.125 39.668 41.7891 39.668 36.457C39.668 33.9023 38.6484 31.4414 36.832 29.6367Z" fill="#FECC30"/>
<path d="M30 47.0156C24.1758 47.0156 19.4531 42.293 19.4531 36.4687C19.4531 30.6445 24.1758 25.9219 30 25.9219C35.8242 25.9219 40.5469 30.6445 40.5469 36.4687C40.5469 39.2695 39.4336 41.9531 37.4531 43.9219C35.4844 45.914 32.8008 47.0273 30 47.0156ZM30 27.6797C25.1484 27.6797 21.2109 31.6055 21.1992 36.457C21.1875 41.3086 25.125 45.2461 29.9766 45.2578C34.8281 45.2695 38.7656 41.332 38.7773 36.4805C38.7773 34.1484 37.8516 31.9102 36.2109 30.2578C34.5703 28.6055 32.332 27.6797 30 27.6797Z" fill="#F8BE32"/>
</svg>
