<svg width="64" height="64" viewBox="0 0 64 64" fill="none" xmlns="http://www.w3.org/2000/svg">
<path d="M51.104 32.0181H9.104C7.99943 32.0181 7.104 32.9135 7.104 34.0181V51.0181C7.104 52.1226 7.99943 53.0181 9.104 53.0181H51.104C52.2086 53.0181 53.104 52.1226 53.104 51.0181V34.0181C53.104 32.9135 52.2086 32.0181 51.104 32.0181Z" fill="#353D46"/>
<path d="M32.8111 27.311C32.6866 27.2011 32.5389 27.1205 32.3791 27.0751C32.2192 27.0298 32.0513 27.0208 31.8875 27.0489C31.7237 27.077 31.5684 27.1415 31.4328 27.2376C31.2972 27.3336 31.1849 27.4589 31.1041 27.604V23.0181C31.1041 22.7528 30.9988 22.4985 30.8112 22.311C30.6237 22.1234 30.3694 22.0181 30.1041 22.0181C29.8389 22.0181 29.5846 22.1234 29.397 22.311C29.2095 22.4985 29.1041 22.7528 29.1041 23.0181V27.604L28.8111 27.311C28.6224 27.1295 28.37 27.0293 28.1082 27.0319C27.8463 27.0345 27.596 27.1396 27.4108 27.3248C27.2257 27.5099 27.1205 27.7603 27.118 28.0222C27.1154 28.284 27.2156 28.5364 27.3971 28.7251L29.3968 30.7248C29.5854 30.9105 29.8394 31.0146 30.1041 31.0146C30.3688 31.0146 30.6229 30.9105 30.8115 30.7248L32.8112 28.7251C32.904 28.6322 32.9777 28.522 33.028 28.4007C33.0782 28.2794 33.1041 28.1494 33.1041 28.018C33.1041 27.8867 33.0782 27.7567 33.028 27.6354C32.9777 27.5141 32.904 27.4039 32.8111 27.311Z" fill="#353D46"/>
<path opacity="0.1" d="M31.104 23.0181H29.104V25.0181H31.104V23.0181Z" fill="black"/>
<path d="M51.104 3.01807H9.104C7.99943 3.01807 7.104 3.9135 7.104 5.01807V22.0181C7.104 23.1226 7.99943 24.0181 9.104 24.0181H51.104C52.2086 24.0181 53.104 23.1226 53.104 22.0181V5.01807C53.104 3.9135 52.2086 3.01807 51.104 3.01807Z" fill="#979797"/>
<path opacity="0.1" d="M29.1041 8.01807H14.1041C13.8423 8.01295 13.5929 7.90535 13.4095 7.71836C13.2262 7.53137 13.1235 7.27993 13.1235 7.01804C13.1235 6.75615 13.2262 6.50471 13.4096 6.31773C13.593 6.13076 13.8424 6.02316 14.1042 6.01807H29.1041C29.3659 6.0233 29.6152 6.13096 29.7984 6.31793C29.9817 6.50489 30.0843 6.75626 30.0843 7.01807C30.0843 7.27987 29.9817 7.53124 29.7984 7.71821C29.6152 7.90517 29.3659 8.01283 29.1041 8.01807ZM37.1041 13.0181H14.1041C13.8424 13.0128 13.5931 12.9052 13.4099 12.7182C13.2266 12.5312 13.124 12.2798 13.124 12.018C13.124 11.7562 13.2266 11.5049 13.4099 11.3179C13.5932 11.1309 13.8425 11.0233 14.1042 11.0181H37.1041C37.3659 11.0233 37.6152 11.131 37.7984 11.3179C37.9817 11.5049 38.0843 11.7563 38.0843 12.0181C38.0843 12.2799 37.9817 12.5312 37.7984 12.7182C37.6152 12.9052 37.3659 13.0128 37.1041 13.0181ZM22.1041 18.0181H14.1041C13.8423 18.013 13.5929 17.9053 13.4095 17.7184C13.2262 17.5314 13.1235 17.2799 13.1235 17.018C13.1235 16.7561 13.2262 16.5047 13.4096 16.3177C13.593 16.1308 13.8424 16.0232 14.1042 16.0181H22.1041C22.366 16.0232 22.6154 16.1308 22.7987 16.3178C22.9821 16.5047 23.0848 16.7562 23.0848 17.0181C23.0848 17.28 22.9821 17.5314 22.7987 17.7184C22.6154 17.9054 22.366 18.013 22.1041 18.0181ZM29.1041 37.0181H14.1041C13.8423 37.013 13.5929 36.9053 13.4095 36.7184C13.2262 36.5314 13.1235 36.2799 13.1235 36.018C13.1235 35.7561 13.2262 35.5047 13.4096 35.3177C13.593 35.1308 13.8424 35.0232 14.1042 35.0181H29.1041C29.3659 35.0233 29.6152 35.131 29.7984 35.3179C29.9817 35.5049 30.0843 35.7563 30.0843 36.0181C30.0843 36.2799 29.9817 36.5312 29.7984 36.7182C29.6152 36.9052 29.3659 37.0128 29.1041 37.0181ZM37.1041 42.0181H14.1041C13.8424 42.0128 13.5931 41.9052 13.4099 41.7182C13.2266 41.5312 13.124 41.2798 13.124 41.018C13.124 40.7562 13.2266 40.5049 13.4099 40.3179C13.5932 40.1309 13.8425 40.0233 14.1042 40.0181H37.1041C37.3659 40.0233 37.6152 40.131 37.7984 40.3179C37.9817 40.5049 38.0843 40.7563 38.0843 41.0181C38.0843 41.2799 37.9817 41.5312 37.7984 41.7182C37.6152 41.9052 37.3659 42.0128 37.1041 42.0181Z" fill="black"/>
<path d="M29.1041 9.01807H14.1041C13.8423 9.01295 13.5929 8.90535 13.4095 8.71836C13.2262 8.53137 13.1235 8.27993 13.1235 8.01804C13.1235 7.75615 13.2262 7.50471 13.4096 7.31773C13.593 7.13076 13.8424 7.02316 14.1042 7.01807H29.1041C29.3659 7.0233 29.6152 7.13096 29.7984 7.31793C29.9817 7.50489 30.0843 7.75626 30.0843 8.01807C30.0843 8.27987 29.9817 8.53124 29.7984 8.71821C29.6152 8.90517 29.3659 9.01283 29.1041 9.01807ZM37.1041 14.0181H14.1041C13.8424 14.0128 13.5931 13.9052 13.4099 13.7182C13.2266 13.5312 13.124 13.2798 13.124 13.018C13.124 12.7562 13.2266 12.5049 13.4099 12.3179C13.5932 12.1309 13.8425 12.0233 14.1042 12.0181H37.1041C37.3659 12.0233 37.6152 12.131 37.7984 12.3179C37.9817 12.5049 38.0843 12.7563 38.0843 13.0181C38.0843 13.2799 37.9817 13.5312 37.7984 13.7182C37.6152 13.9052 37.3659 14.0128 37.1041 14.0181ZM22.1041 19.0181H14.1041C13.8423 19.013 13.5929 18.9053 13.4095 18.7184C13.2262 18.5314 13.1235 18.2799 13.1235 18.018C13.1235 17.7561 13.2262 17.5047 13.4096 17.3177C13.593 17.1308 13.8424 17.0232 14.1042 17.0181H22.1041C22.366 17.0232 22.6154 17.1308 22.7987 17.3178C22.9821 17.5047 23.0848 17.7562 23.0848 18.0181C23.0848 18.28 22.9821 18.5314 22.7987 18.7184C22.6154 18.9054 22.366 19.013 22.1041 19.0181ZM29.1041 38.0181H14.1041C13.8423 38.013 13.5929 37.9053 13.4095 37.7184C13.2262 37.5314 13.1235 37.2799 13.1235 37.018C13.1235 36.7561 13.2262 36.5047 13.4096 36.3177C13.593 36.1308 13.8424 36.0232 14.1042 36.0181H29.1041C29.3659 36.0233 29.6152 36.131 29.7984 36.3179C29.9817 36.5049 30.0843 36.7563 30.0843 37.0181C30.0843 37.2799 29.9817 37.5312 29.7984 37.7182C29.6152 37.9052 29.3659 38.0128 29.1041 38.0181ZM37.1041 43.0181H14.1041C13.8424 43.0128 13.5931 42.9052 13.4099 42.7182C13.2266 42.5312 13.124 42.2798 13.124 42.018C13.124 41.7562 13.2266 41.5049 13.4099 41.3179C13.5932 41.1309 13.8425 41.0233 14.1042 41.0181H37.1041C37.3659 41.0233 37.6152 41.131 37.7984 41.3179C37.9817 41.5049 38.0843 41.7563 38.0843 42.0181C38.0843 42.2799 37.9817 42.5312 37.7984 42.7182C37.6152 42.9052 37.3659 43.0128 37.1041 43.0181Z" fill="white"/>
<path opacity="0.1" d="M53.1041 5.01807V21.0181C42.5006 20.6271 42.5086 5.40518 53.1041 5.01807Z" fill="black"/>
<path d="M61.1041 14.0181C61.1041 15.0686 60.8972 16.1089 60.4951 17.0795C60.0931 18.0501 59.5038 18.9321 58.761 19.6749C58.0181 20.4178 57.1362 21.0071 56.1656 21.4091C55.195 21.8111 54.1547 22.0181 53.1041 22.0181C42.5037 21.626 42.5066 6.40858 53.1042 6.01807C55.2259 6.01809 57.2607 6.86096 58.761 8.36125C60.2613 9.86154 61.1041 11.8964 61.1041 14.0181Z" fill="#CCDDE7"/>
<path d="M52.1041 17.018C51.9728 17.0181 51.8427 16.9923 51.7214 16.942C51.6001 16.8918 51.4899 16.818 51.3971 16.725L49.3971 14.725C49.2157 14.5362 49.1155 14.2838 49.118 14.022C49.1206 13.7602 49.2258 13.5098 49.4109 13.3247C49.5961 13.1395 49.8465 13.0344 50.1083 13.0318C50.3701 13.0293 50.6225 13.1295 50.8113 13.311L52.1042 14.6039L55.3972 11.3109C55.5859 11.1294 55.8383 11.0292 56.1002 11.0318C56.362 11.0344 56.6124 11.1395 56.7975 11.3247C56.9827 11.5098 57.0878 11.7602 57.0904 12.0221C57.0929 12.2839 56.9927 12.5363 56.8112 12.725L52.8112 16.725C52.7185 16.818 52.6083 16.8918 52.4869 16.9421C52.3656 16.9924 52.2355 17.0182 52.1041 17.018Z" fill="black"/>
<path opacity="0.1" d="M24.2642 52.5279L23.9842 53.0179H9.10419C8.57423 53.0163 8.06643 52.8051 7.6917 52.4304C7.31696 52.0556 7.10575 51.5478 7.10419 51.0179V41.7679L8.31419 42.4679C9.00419 42.8179 9.56419 41.9778 10.2042 41.7878C10.3324 41.7289 10.441 41.6345 10.5172 41.5157C10.5934 41.397 10.634 41.2589 10.6342 41.1178V38.7478C10.6358 38.553 10.7146 38.3668 10.8533 38.2299C10.992 38.0931 11.1793 38.0168 11.3742 38.0178H15.8842C16.079 38.0168 16.2663 38.0931 16.405 38.2299C16.5437 38.3668 16.6225 38.553 16.6242 38.7478V41.1178C16.6243 41.2589 16.6649 41.397 16.7411 41.5158C16.8173 41.6345 16.926 41.7289 17.0542 41.7878C17.6942 41.9778 18.2542 42.8178 18.9442 42.4679L21.0042 41.2779C21.1727 41.1816 21.3725 41.1559 21.5599 41.2065C21.7473 41.2571 21.907 41.3798 22.0042 41.5479L24.2642 45.4579C24.3605 45.628 24.3862 45.8292 24.3357 46.0181C24.2852 46.207 24.1626 46.3685 23.9942 46.4679L21.9442 47.6479C21.4342 47.9279 21.6242 48.5279 21.6142 48.9979C21.6242 49.4679 21.4342 50.0579 21.9442 50.3379L23.9942 51.5179C24.1621 51.6177 24.2843 51.7792 24.3348 51.9679C24.3852 52.1566 24.3599 52.3576 24.2642 52.5279Z" fill="black"/>
<path d="M21.6114 50.0067C21.6201 49.5362 21.436 48.9385 21.9421 48.6637L23.9958 47.478C24.0792 47.4298 24.1523 47.3657 24.2109 47.2893C24.2696 47.2129 24.3126 47.1257 24.3375 47.0326C24.3624 46.9396 24.3688 46.8425 24.3562 46.7471C24.3436 46.6516 24.3124 46.5595 24.2642 46.4761L22.0044 42.5619C21.9562 42.4784 21.8921 42.4053 21.8157 42.3467C21.7393 42.2881 21.652 42.2451 21.559 42.2201C21.466 42.1952 21.3689 42.1888 21.2734 42.2014C21.1779 42.214 21.0859 42.2452 21.0025 42.2934L18.9473 43.48C18.2512 43.8336 17.6919 42.9962 17.0577 42.8022C16.9293 42.7437 16.8203 42.6499 16.7432 42.5317C16.6662 42.4135 16.6243 42.2759 16.6225 42.1348V39.7647C16.6225 39.6684 16.6036 39.573 16.5667 39.484C16.5299 39.395 16.4758 39.3142 16.4077 39.2461C16.3396 39.178 16.2588 39.1239 16.1698 39.0871C16.0808 39.0502 15.9854 39.0312 15.8891 39.0313H11.3694C11.1749 39.0313 10.9883 39.1085 10.8508 39.2461C10.7132 39.3836 10.6359 39.5702 10.6359 39.7647V42.1348C10.6341 42.2759 10.5923 42.4135 10.5152 42.5317C10.4382 42.6498 10.3291 42.7436 10.2008 42.8022C9.56534 42.9939 9.00831 43.8355 8.31124 43.48L6.256 42.2934C6.08754 42.1961 5.88734 42.1698 5.69945 42.2201C5.51155 42.2705 5.35135 42.3934 5.25409 42.5619L2.99426 46.476C2.9461 46.5595 2.91485 46.6515 2.90227 46.747C2.8897 46.8425 2.89606 46.9396 2.92099 47.0326C2.94592 47.1256 2.98893 47.2128 3.04756 47.2892C3.1062 47.3657 3.17931 47.4298 3.26272 47.4779L5.31644 48.6637C5.82398 48.9389 5.63823 49.5359 5.64707 50.0067C5.63838 50.4771 5.8225 51.0748 5.31641 51.3497L3.26272 52.5354C3.09426 52.6327 2.97134 52.7929 2.92099 52.9808C2.87064 53.1687 2.897 53.3689 2.99426 53.5373L5.25412 57.4515C5.35137 57.62 5.51156 57.7429 5.69945 57.7933C5.88734 57.8436 6.08754 57.8173 6.256 57.72L8.31119 56.5335C9.0073 56.1798 9.56653 57.0172 10.2008 57.2112C10.3291 57.2697 10.4382 57.3636 10.5152 57.4817C10.5922 57.5999 10.6341 57.7375 10.6359 57.8786V60.2487C10.6359 60.4433 10.7132 60.6298 10.8507 60.7674C10.9883 60.9049 11.1748 60.9822 11.3694 60.9822H15.8891C16.0836 60.9822 16.2701 60.9049 16.4077 60.7674C16.5452 60.6298 16.6225 60.4433 16.6225 60.2487V57.8785C16.6243 57.7375 16.6662 57.5999 16.7432 57.4817C16.8203 57.3636 16.9293 57.2697 17.0577 57.2112C17.6931 57.0195 18.2501 56.1779 18.9472 56.5333L21.0025 57.72C21.0859 57.7682 21.1779 57.7995 21.2734 57.812C21.3689 57.8246 21.466 57.8182 21.559 57.7933C21.652 57.7684 21.7393 57.7254 21.8157 57.6667C21.8921 57.6081 21.9562 57.535 22.0044 57.4516L24.2642 53.5374C24.3615 53.3689 24.3878 53.1687 24.3375 52.9808C24.2871 52.7929 24.1642 52.6327 23.9958 52.5355L21.942 51.3497C21.4345 51.0744 21.6203 50.4774 21.6114 50.0067Z" fill="#CCDDE7"/>
<path d="M18.7634 50.0067C18.5539 56.793 8.70363 56.7914 8.49512 50.0065C8.70463 43.2203 18.5549 43.2219 18.7634 50.0067Z" fill="white"/>
</svg>
