<svg width="77" height="55" viewBox="0 0 77 55" fill="none" xmlns="http://www.w3.org/2000/svg">
<path fill-rule="evenodd" clip-rule="evenodd" d="M54.6219 40.2543L57.0867 41.61C59.1426 42.7407 61.7507 41.9841 62.8818 39.9277C64.0129 37.8714 63.2446 35.2836 61.1997 34.1325C63.2505 35.2812 65.8667 34.5012 66.9946 32.4502C67.6852 31.1948 67.6654 29.7452 67.0813 28.5422L67.7214 28.2759L38.8318 5.28065C30.5915 -0.276853 24.8501 6.88416 19.1848 3.696L11.6802 0.233828C10.4121 -0.351153 8.90216 0.199315 8.30812 1.463L0.24927 18.6096C-0.0520835 19.251 -0.0803707 19.9114 0.165351 20.576C0.411073 21.2407 0.861972 21.724 1.50786 22.015C4.18535 23.2214 8.28832 25.0672 9.12959 25.3937C11.6975 26.3905 10.851 30.4033 12.2565 32.2352C14.4197 35.0547 14.7725 37.1104 16.6135 38.1678L42.6958 53.1486C44.7306 54.317 47.3598 53.5225 48.4908 51.4662C49.6215 49.4107 48.8604 46.8092 46.8144 45.6624L50.5088 47.7316C52.556 48.8779 55.173 48.1055 56.3039 46.0492C57.4352 43.9929 56.6669 41.4054 54.6219 40.2543Z" fill="#AB7862"/>
<path fill-rule="evenodd" clip-rule="evenodd" d="M39.6927 5.96601L38.8318 5.2809C30.5915 -0.276607 24.8501 6.88441 19.1848 3.69643L11.6802 0.234071C10.4121 -0.35091 8.90216 0.199562 8.30813 1.46325L6.52641 5.2545C8.29907 4.36533 10.4102 4.90694 12.7526 6.31131C23.977 13.0408 27.8331 5.75047 36.6374 8.86244C36.9912 8.52809 37.3375 8.18996 37.6758 7.84787C38.3171 7.19953 38.9909 6.56646 39.6927 5.96601ZM59.7261 33.3072L61.1997 34.1324C63.1568 35.2286 65.6345 34.5705 66.8369 32.7137L53.0324 24.8664C52.0565 24.3169 50.8199 24.6628 50.2704 25.6385C49.7211 26.6144 50.0667 27.8509 51.0425 28.4003C53.9736 30.0785 59.8026 33.3503 59.7261 33.3072ZM53.1855 39.4644L43.7194 34.0883C42.7435 33.5389 42.3979 32.3022 42.9474 31.3263C43.4969 30.3504 44.7334 30.0047 45.7094 30.5542L62.7062 40.2189C61.4984 42.0523 59.0427 42.6853 57.0869 41.6099L53.1855 39.4644ZM40.0572 41.6444C40.3614 42.0932 40.7491 42.205 41.2347 42.4822L47.8575 46.2618L50.5088 47.7318C52.4787 48.8239 54.964 48.1644 56.1606 46.2901L42.6611 38.6429C41.6852 38.0934 40.4487 38.439 39.8992 39.4149C39.4888 40.1444 39.5784 41.0196 40.0572 41.6444ZM39.9665 51.5811L41.8983 47.9077L48.4061 51.6128C47.2329 53.5595 44.6814 54.2888 42.6958 53.1486L39.9665 51.5811Z" fill="#946256"/>
<path fill-rule="evenodd" clip-rule="evenodd" d="M35.6306 42.8155C36.9509 41.3493 39.1588 40.9071 40.9722 41.876C41.547 42.1832 42.0441 42.6117 42.4299 43.1369C43.4313 44.4988 43.5731 46.3301 42.7748 47.8231L40.1769 52.681C39.0371 54.8121 36.3606 55.623 34.2296 54.4834C32.5165 53.5673 31.6568 51.6579 31.9774 49.8372C30.7145 51.5983 28.2936 52.2001 26.3337 51.152C24.6563 50.2547 23.7971 48.4055 24.063 46.6196C22.9162 48.7613 20.2533 49.5886 18.1059 48.4402C15.9747 47.3004 15.1636 44.624 16.3034 42.493L17.1226 40.9616C15.7837 42.1738 13.7685 42.4823 12.0941 41.5867C9.96293 40.4469 9.15202 37.7706 10.2916 35.6396L13.0012 30.5737C14.1413 28.4422 16.8166 27.6337 18.9483 28.7715C20.9961 29.8645 21.8242 32.3856 20.8737 34.4696C22.2126 33.2427 24.2388 32.9282 25.9218 33.8266C27.7339 34.7938 28.5908 36.8793 28.1056 38.7908C29.4259 37.3246 31.6332 36.8835 33.447 37.8515C35.2591 38.8183 36.116 40.904 35.6306 42.8155Z" fill="#BD8871"/>
<path fill-rule="evenodd" clip-rule="evenodd" d="M17.1224 40.9619C15.7835 42.1741 13.7683 42.4826 12.0939 41.587C11.7245 41.3894 11.3946 41.1456 11.1078 40.8663C12.455 40.9263 13.0589 39.8642 13.6727 38.7843L18.276 30.6863C18.6471 30.0334 18.6756 29.171 18.3891 28.5217C18.5787 28.5911 18.7653 28.6741 18.9481 28.7716C20.9959 29.8646 21.824 32.3858 20.8735 34.4698L17.1224 40.9619ZM24.0628 46.6199L28.1062 38.7883C28.5899 36.8776 27.7328 34.7934 25.9216 33.8269C25.7048 33.7109 25.4821 33.6155 25.256 33.5395C25.5967 34.3425 25.4195 35.1098 25.3595 35.2262L19.2704 47.0184C19.0548 47.4359 18.2741 47.9296 17.4985 48.0482C17.6868 48.1934 17.8894 48.3251 18.1057 48.4409C20.2895 49.6086 22.9438 48.7147 24.0628 46.6199ZM40.4787 41.6508C40.6457 41.7151 40.8104 41.79 40.9722 41.8763C41.547 42.1835 42.0441 42.612 42.4299 43.137C43.4313 44.4989 43.5731 46.3303 42.7746 47.8233L40.1767 52.6811C39.0371 54.8123 36.3604 55.6232 34.2294 54.4834C34.2057 54.4708 34.1819 54.4576 34.1585 54.4446C34.6143 54.2786 34.9021 54.0274 35.0324 53.7753L40.4547 43.2741C40.6689 42.86 40.7102 42.2054 40.4787 41.6508ZM31.9772 49.8375C30.7143 51.5987 28.2934 52.2004 26.3335 51.1523C26.1898 51.0754 26.0523 50.9914 25.9209 50.9013C26.6681 50.575 27.2987 50.0159 27.7309 49.179L32.7843 39.3925C33.1415 38.7008 33.0651 38.1049 32.767 37.5593C32.998 37.6363 33.2256 37.7334 33.447 37.8516C35.2591 38.8187 36.116 40.9044 35.6308 42.8159L31.9772 49.8375Z" fill="#946255"/>
<path fill-rule="evenodd" clip-rule="evenodd" d="M50.5548 18.2438L65.3124 26.6551C66.1067 27.1079 66.7091 27.7753 67.0817 28.5432L75.4091 25.0686C76.6828 24.5372 77.3019 23.0841 76.8031 21.7974L69.8525 3.86747C69.5795 3.16293 69.0712 2.66224 68.3626 2.39973C67.6539 2.13723 66.9422 2.18588 66.2759 2.54249L61.2945 5.20885C55.3446 8.30366 49.6154 -2.11171 38.8422 5.27862C37.4412 6.23587 36.1268 7.38471 34.9347 8.58937C31.9425 11.6131 28.2927 14.3102 24.165 16.7193C24.0334 16.7961 23.9502 16.9137 23.9214 17.0633C23.8927 17.2126 23.9259 17.3528 24.0194 17.4727C32.5671 28.4714 42.9691 13.9204 50.5548 18.2438Z" fill="#BD8871"/>
<path fill-rule="evenodd" clip-rule="evenodd" d="M62.0009 24.7673L65.3124 26.6548C66.1067 27.1076 66.7091 27.7752 67.0817 28.5429L75.4091 25.0683C76.682 24.5372 77.3011 23.0857 76.804 21.7996L74.7655 16.541C74.8596 18.2129 74.472 19.6835 72.7522 20.3846L62.0009 24.7673ZM25.1762 18.7979C33.4912 27.2079 43.308 14.113 50.5548 18.2435C39.0785 10.4703 34.8041 20.7132 25.1762 18.7979Z" fill="#946255"/>
</svg>
