<svg width="1281" height="421" viewBox="0 0 1281 421" fill="none" xmlns="http://www.w3.org/2000/svg">
<rect x="1" y="118.814" width="272.392" height="62.1187" rx="10" fill="#25A9E0"/>
<rect x="0.90332" y="0.695801" width="272.392" height="142.599" rx="11" fill="#9ACA46"/>
<path d="M82.3298 81.2913C81.0071 81.2913 79.7591 81.0993 78.5858 80.7153C77.4338 80.3313 76.3778 79.7873 75.4178 79.0833C74.4791 78.358 73.6685 77.5046 72.9858 76.5233C72.3031 75.542 71.7698 74.4433 71.3858 73.2273C71.0231 72.0113 70.8418 70.71 70.8418 69.3233C70.8418 67.9366 71.0231 66.6353 71.3858 65.4193C71.7698 64.2033 72.3031 63.1046 72.9858 62.1233C73.6685 61.1206 74.4898 60.2566 75.4498 59.5313C76.4098 58.806 77.4658 58.2513 78.6178 57.8673C79.7911 57.4833 81.0391 57.2913 82.3618 57.2913C83.6845 57.2913 84.9218 57.4833 86.0738 57.8673C87.2471 58.2513 88.3031 58.806 89.2418 59.5313C90.2018 60.2353 91.0231 61.078 91.7058 62.0593C92.3885 63.0406 92.9111 64.1393 93.2738 65.3553C93.6365 66.5713 93.8178 67.8726 93.8178 69.2593C93.8178 70.646 93.6258 71.9473 93.2418 73.1633C92.8791 74.3793 92.3565 75.4886 91.6738 76.4913C90.9911 77.4726 90.1698 78.326 89.2098 79.0513C88.2711 79.7766 87.2151 80.3313 86.0418 80.7153C84.8898 81.0993 83.6525 81.2913 82.3298 81.2913ZM82.3298 77.7073C83.4178 77.7073 84.4098 77.5046 85.3058 77.0993C86.2231 76.6726 87.0125 76.086 87.6738 75.3393C88.3351 74.5926 88.8471 73.7073 89.2098 72.6833C89.5938 71.638 89.7858 70.5073 89.7858 69.2913C89.7858 68.0753 89.5938 66.9553 89.2098 65.9313C88.8471 64.886 88.3351 63.99 87.6738 63.2433C87.0125 62.4966 86.2231 61.9206 85.3058 61.5153C84.4098 61.0886 83.4178 60.8753 82.3298 60.8753C81.2418 60.8753 80.2391 61.0886 79.3218 61.5153C78.4258 61.9206 77.6471 62.4966 76.9858 63.2433C76.3245 63.99 75.8018 64.886 75.4178 65.9313C75.0551 66.9553 74.8738 68.0753 74.8738 69.2913C74.8738 70.5073 75.0551 71.638 75.4178 72.6833C75.8018 73.7073 76.3245 74.5926 76.9858 75.3393C77.6471 76.086 78.4258 76.6726 79.3218 77.0993C80.2391 77.5046 81.2418 77.7073 82.3298 77.7073Z" fill="#0E0E0E"/>
<path d="M98.764 80.6513V66.8913H95.82V63.9153H98.764V62.7313C98.764 61.494 99.02 60.4166 99.532 59.4993C100.044 58.5606 100.748 57.8353 101.644 57.3233C102.54 56.79 103.564 56.5233 104.716 56.5233C105.377 56.5233 105.975 56.6086 106.508 56.7793C107.063 56.9286 107.553 57.1206 107.98 57.3553L107.148 60.1713C106.871 60.022 106.551 59.9046 106.188 59.8193C105.847 59.7126 105.505 59.6593 105.164 59.6593C104.247 59.6593 103.564 59.9473 103.116 60.5233C102.668 61.078 102.444 61.878 102.444 62.9233V63.9153H109.58V62.7313C109.58 61.494 109.836 60.4166 110.348 59.4993C110.86 58.5606 111.553 57.8353 112.428 57.3233C113.324 56.79 114.359 56.5233 115.532 56.5233C116.193 56.5233 116.791 56.6086 117.324 56.7793C117.879 56.9286 118.369 57.1206 118.796 57.3553L117.964 60.1713C117.687 60.022 117.367 59.9046 117.004 59.8193C116.663 59.7126 116.321 59.6593 115.98 59.6593C115.063 59.6593 114.38 59.9473 113.932 60.5233C113.484 61.078 113.26 61.878 113.26 62.9233V63.9153H118.06V66.8913H113.26V80.6513H109.58V66.8913H102.444V80.6513H98.764Z" fill="#0E0E0E"/>
<path d="M119.498 73.4833V70.2193H128.458V73.4833H119.498Z" fill="#0E0E0E"/>
<path d="M138.641 81.1313C136.955 81.1313 135.633 80.6513 134.673 79.6913C133.713 78.71 133.233 77.3126 133.233 75.4993V66.8913H130.289V63.9153H133.233V58.2513H136.913V63.9153H141.777V66.8913H136.913V75.1153C136.913 76.0113 137.094 76.7046 137.457 77.1953C137.841 77.6646 138.395 77.8993 139.121 77.8993C139.505 77.8993 139.921 77.846 140.369 77.7393C140.817 77.6113 141.233 77.4406 141.617 77.2273L142.449 80.0113C141.958 80.3526 141.382 80.6193 140.721 80.8113C140.081 81.0246 139.387 81.1313 138.641 81.1313Z" fill="#0E0E0E"/>
<path d="M150.286 81.1313C149.433 81.1313 148.644 81.0033 147.918 80.7473C147.214 80.4913 146.596 80.1286 146.062 79.6593C145.529 79.19 145.113 78.6353 144.814 77.9953C144.516 77.3553 144.366 76.6513 144.366 75.8833C144.366 74.8166 144.644 73.8886 145.198 73.0993C145.774 72.2886 146.574 71.6593 147.598 71.2113C148.622 70.7633 149.817 70.5393 151.182 70.5393C151.929 70.5393 152.644 70.614 153.326 70.7633C154.009 70.8913 154.66 71.0833 155.278 71.3393V70.2833C155.278 69.5366 155.14 68.886 154.862 68.3313C154.585 67.7553 154.19 67.3073 153.678 66.9873C153.166 66.6673 152.548 66.5073 151.822 66.5073C151.054 66.5073 150.361 66.71 149.742 67.1153C149.124 67.5206 148.665 68.086 148.366 68.8113L144.974 68.0433C145.23 67.1046 145.689 66.294 146.35 65.6113C147.033 64.9286 147.844 64.3953 148.782 64.0113C149.742 63.6273 150.777 63.4353 151.886 63.4353C152.932 63.4353 153.881 63.606 154.734 63.9473C155.609 64.2886 156.356 64.7686 156.974 65.3873C157.593 66.006 158.073 66.742 158.414 67.5953C158.756 68.4486 158.926 69.398 158.926 70.4433V80.6513H155.566L155.438 78.4433C154.99 79.254 154.318 79.9046 153.422 80.3953C152.526 80.886 151.481 81.1313 150.286 81.1313ZM148.078 75.7233C148.078 76.1926 148.206 76.6193 148.462 77.0033C148.718 77.366 149.07 77.654 149.518 77.8673C149.988 78.0806 150.532 78.1873 151.15 78.1873C151.94 78.1873 152.644 78.0166 153.262 77.6753C153.881 77.334 154.372 76.8753 154.734 76.2993C155.097 75.702 155.278 75.03 155.278 74.2833V73.8993C154.724 73.6646 154.148 73.4833 153.55 73.3553C152.974 73.206 152.377 73.1313 151.758 73.1313C150.649 73.1313 149.753 73.366 149.07 73.8353C148.409 74.3046 148.078 74.934 148.078 75.7233Z" fill="#0E0E0E"/>
<path d="M162.885 80.6513V56.8433H166.565V70.8273L173.413 63.9153H177.893L170.373 71.3393L178.661 80.6513H173.829L166.565 72.2033V80.6513H162.885Z" fill="#0E0E0E"/>
<path d="M184.887 59.2433C184.887 59.6486 184.78 60.022 184.567 60.3633C184.375 60.7046 184.108 60.982 183.767 61.1953C183.425 61.3873 183.052 61.4833 182.647 61.4833C182.241 61.4833 181.868 61.3873 181.527 61.1953C181.185 60.982 180.908 60.7046 180.695 60.3633C180.503 60.022 180.407 59.6486 180.407 59.2433C180.407 58.838 180.503 58.4646 180.695 58.1233C180.908 57.782 181.185 57.5153 181.527 57.3233C181.868 57.11 182.241 57.0033 182.647 57.0033C183.052 57.0033 183.425 57.11 183.767 57.3233C184.108 57.5153 184.375 57.782 184.567 58.1233C184.78 58.4646 184.887 58.838 184.887 59.2433ZM180.823 80.6513V63.9153H184.503V80.6513H180.823Z" fill="#0E0E0E"/>
<path d="M188.479 80.6513V63.9153H191.839L191.967 66.2193C192.457 65.366 193.14 64.694 194.015 64.2033C194.911 63.6913 195.935 63.4353 197.087 63.4353C198.345 63.4353 199.433 63.734 200.351 64.3313C201.289 64.9286 202.015 65.7713 202.527 66.8593C203.039 67.9473 203.295 69.2273 203.295 70.6993V80.6513H199.615V71.1153C199.615 69.75 199.305 68.6833 198.687 67.9153C198.089 67.1473 197.247 66.7633 196.159 66.7633C195.391 66.7633 194.697 66.9446 194.079 67.3073C193.481 67.67 193.012 68.1606 192.671 68.7793C192.329 69.398 192.159 70.1126 192.159 70.9233V80.6513H188.479Z" fill="#0E0E0E"/>
<path d="M214.236 80.3313C213.148 80.3313 212.135 80.118 211.196 79.6913C210.257 79.2647 209.436 78.678 208.732 77.9313C208.028 77.1633 207.484 76.278 207.1 75.2753C206.716 74.2513 206.524 73.142 206.524 71.9473C206.524 70.7526 206.716 69.6433 207.1 68.6193C207.505 67.574 208.071 66.6673 208.796 65.8993C209.521 65.1313 210.364 64.534 211.324 64.1073C212.284 63.6593 213.319 63.4353 214.428 63.4353C215.58 63.4353 216.625 63.6913 217.564 64.2033C218.524 64.694 219.292 65.3873 219.868 66.2833L219.996 63.9153H223.356V78.8913C223.356 80.1713 223.153 81.334 222.748 82.3793C222.343 83.446 221.767 84.3526 221.02 85.0993C220.273 85.8673 219.377 86.454 218.332 86.8593C217.308 87.2646 216.156 87.4673 214.876 87.4673C213.169 87.4673 211.676 87.0833 210.396 86.3153C209.116 85.5473 208.113 84.4806 207.388 83.1153L210.876 81.8993C211.345 82.6673 211.932 83.2433 212.636 83.6273C213.34 84.0326 214.129 84.2353 215.004 84.2353C215.943 84.2353 216.764 84.022 217.468 83.5953C218.172 83.19 218.716 82.6033 219.1 81.8353C219.484 81.0886 219.676 80.2033 219.676 79.1793V77.5793C219.079 78.4326 218.311 79.1046 217.372 79.5953C216.433 80.086 215.388 80.3313 214.236 80.3313ZM215.004 77.0033C215.9 77.0033 216.7 76.7793 217.404 76.3313C218.129 75.8833 218.695 75.2753 219.1 74.5073C219.527 73.7393 219.74 72.8646 219.74 71.8833C219.74 70.902 219.527 70.0273 219.1 69.2593C218.695 68.4913 218.129 67.8833 217.404 67.4353C216.7 66.9873 215.9 66.7633 215.004 66.7633C214.108 66.7633 213.308 66.9873 212.604 67.4353C211.9 67.8833 211.335 68.4913 210.908 69.2593C210.503 70.0273 210.3 70.902 210.3 71.8833C210.3 72.8646 210.503 73.7393 210.908 74.5073C211.335 75.2753 211.9 75.8833 212.604 76.3313C213.308 76.7793 214.108 77.0033 215.004 77.0033Z" fill="#0E0E0E"/>
<rect x="336.807" y="118.814" width="272.392" height="62.1187" rx="10" fill="#25A9E0"/>
<rect x="336.807" y="0.695801" width="272.392" height="142.599" rx="11" fill="#9ACA46"/>
<path d="M393.036 80.4113V57.6913H399.916C401.729 57.6913 403.276 57.99 404.556 58.5873C405.857 59.1846 406.849 60.038 407.532 61.1473C408.236 62.2566 408.588 63.6006 408.588 65.1793C408.588 66.6726 408.225 67.9846 407.5 69.1153C406.774 70.2246 405.75 71.0886 404.428 71.7073C403.105 72.3046 401.548 72.6033 399.756 72.6033C399.329 72.6033 398.87 72.582 398.38 72.5393C397.91 72.4966 397.409 72.4433 396.876 72.3793V80.4113H393.036ZM396.876 61.0833V68.9873C397.345 69.0513 397.814 69.1046 398.284 69.1473C398.753 69.19 399.19 69.2113 399.596 69.2113C401.217 69.2113 402.454 68.8593 403.308 68.1553C404.182 67.4513 404.62 66.4486 404.62 65.1473C404.62 63.8673 404.204 62.8753 403.372 62.1713C402.54 61.446 401.366 61.0833 399.852 61.0833H396.876Z" fill="#0E0E0E"/>
<path d="M411.561 80.4113V63.6753H414.921L415.081 66.4273C415.508 65.4886 416.094 64.7633 416.841 64.2513C417.609 63.718 418.505 63.4513 419.529 63.4513C419.849 63.4513 420.158 63.4726 420.457 63.5153C420.756 63.558 421.022 63.6326 421.257 63.7393L420.841 67.3233C420.606 67.238 420.361 67.1846 420.105 67.1633C419.849 67.1206 419.593 67.0993 419.337 67.0993C418.057 67.0993 417.054 67.526 416.329 68.3793C415.604 69.2326 415.241 70.4166 415.241 71.9313V80.4113H411.561Z" fill="#0E0E0E"/>
<path d="M431.243 80.8913C430.027 80.8913 428.896 80.678 427.851 80.2513C426.827 79.8033 425.931 79.1846 425.163 78.3953C424.395 77.5846 423.798 76.646 423.371 75.5793C422.944 74.4913 422.731 73.3073 422.731 72.0273C422.731 70.7686 422.944 69.606 423.371 68.5393C423.798 67.4513 424.395 66.5126 425.163 65.7233C425.952 64.9126 426.87 64.294 427.915 63.8673C428.982 63.4193 430.134 63.1953 431.371 63.1953C432.587 63.1953 433.707 63.4193 434.731 63.8673C435.776 64.294 436.683 64.9126 437.451 65.7233C438.219 66.5126 438.816 67.4406 439.243 68.5073C439.67 69.574 439.883 70.7473 439.883 72.0273C439.883 73.3073 439.67 74.4913 439.243 75.5793C438.816 76.646 438.208 77.5846 437.419 78.3953C436.651 79.1846 435.734 79.8033 434.667 80.2513C433.622 80.678 432.48 80.8913 431.243 80.8913ZM431.307 77.5633C432.224 77.5633 433.046 77.3286 433.771 76.8593C434.496 76.3686 435.062 75.7073 435.467 74.8753C435.894 74.0433 436.107 73.094 436.107 72.0273C436.107 70.9606 435.894 70.022 435.467 69.2113C435.062 68.3793 434.496 67.7286 433.771 67.2593C433.046 66.7686 432.224 66.5233 431.307 66.5233C430.39 66.5233 429.568 66.7686 428.843 67.2593C428.118 67.7286 427.542 68.3793 427.115 69.2113C426.71 70.022 426.507 70.9606 426.507 72.0273C426.507 73.094 426.71 74.0433 427.115 74.8753C427.542 75.7073 428.118 76.3686 428.843 76.8593C429.568 77.3286 430.39 77.5633 431.307 77.5633Z" fill="#0E0E0E"/>
<path d="M450.832 80.8913C449.637 80.8913 448.538 80.678 447.536 80.2513C446.533 79.8033 445.658 79.1953 444.912 78.4273C444.165 77.638 443.578 76.71 443.152 75.6433C442.746 74.5766 442.544 73.414 442.544 72.1553C442.544 70.8966 442.757 69.7233 443.184 68.6353C443.61 67.5473 444.197 66.598 444.944 65.7873C445.69 64.9766 446.565 64.3473 447.568 63.8993C448.592 63.43 449.701 63.1953 450.896 63.1953C452.048 63.1953 453.104 63.4086 454.064 63.8353C455.024 64.2406 455.845 64.8273 456.528 65.5953C457.232 66.342 457.733 67.2273 458.032 68.2513L454.544 69.0833C454.181 68.2726 453.669 67.6433 453.008 67.1953C452.368 66.7473 451.642 66.5233 450.832 66.5233C449.978 66.5233 449.21 66.7686 448.528 67.2593C447.845 67.75 447.301 68.422 446.896 69.2753C446.512 70.1073 446.32 71.0566 446.32 72.1233C446.32 73.1686 446.512 74.1073 446.896 74.9393C447.28 75.75 447.802 76.39 448.464 76.8593C449.146 77.3286 449.936 77.5633 450.832 77.5633C451.685 77.5633 452.464 77.35 453.168 76.9233C453.872 76.4753 454.394 75.846 454.736 75.0353L458.192 75.8353C457.893 76.8593 457.381 77.7553 456.656 78.5233C455.93 79.27 455.066 79.8566 454.064 80.2833C453.061 80.6886 451.984 80.8913 450.832 80.8913Z" fill="#0E0E0E"/>
<path d="M468.868 80.8913C467.631 80.8913 466.489 80.678 465.444 80.2513C464.42 79.8033 463.524 79.1846 462.756 78.3953C461.988 77.606 461.391 76.678 460.964 75.6113C460.559 74.5233 460.356 73.3286 460.356 72.0273C460.356 70.7686 460.559 69.606 460.964 68.5393C461.391 67.4726 461.967 66.5446 462.692 65.7553C463.439 64.9446 464.313 64.3153 465.316 63.8673C466.319 63.4193 467.407 63.1953 468.58 63.1953C469.753 63.1953 470.82 63.4086 471.78 63.8353C472.761 64.2406 473.604 64.8273 474.308 65.5953C475.033 66.3633 475.588 67.2806 475.972 68.3473C476.356 69.3926 476.548 70.5553 476.548 71.8353V72.9233H464.164C464.271 73.9046 464.527 74.758 464.932 75.4833C465.359 76.1873 465.903 76.7313 466.564 77.1153C467.225 77.4993 467.993 77.6913 468.868 77.6913C470.617 77.6913 471.983 76.9126 472.964 75.3553L476.196 76.6033C475.812 77.478 475.247 78.246 474.5 78.9073C473.775 79.5473 472.921 80.038 471.94 80.3793C470.98 80.7206 469.956 80.8913 468.868 80.8913ZM468.58 66.1713C467.833 66.1713 467.161 66.342 466.564 66.6833C465.988 67.0246 465.497 67.5046 465.092 68.1233C464.687 68.742 464.409 69.4673 464.26 70.2993H472.708C472.58 69.4673 472.335 68.742 471.972 68.1233C471.609 67.5046 471.129 67.0246 470.532 66.6833C469.956 66.342 469.305 66.1713 468.58 66.1713Z" fill="#0E0E0E"/>
<path d="M485.539 80.8913C484.451 80.8913 483.438 80.71 482.499 80.3473C481.582 79.9846 480.792 79.4726 480.131 78.8113C479.491 78.1286 479.032 77.3286 478.755 76.4113L482.083 75.5473C482.36 76.2726 482.808 76.838 483.427 77.2433C484.046 77.6486 484.76 77.8513 485.571 77.8513C486.403 77.8513 487.086 77.6593 487.619 77.2753C488.152 76.87 488.419 76.358 488.419 75.7393C488.419 75.206 488.206 74.758 487.779 74.3953C487.352 74.0326 486.659 73.766 485.699 73.5953L484.643 73.4033C482.851 73.0833 481.496 72.5073 480.579 71.6753C479.683 70.8433 479.235 69.7766 479.235 68.4753C479.235 67.43 479.502 66.5126 480.035 65.7233C480.568 64.934 481.304 64.3153 482.243 63.8673C483.182 63.4193 484.259 63.1953 485.475 63.1953C486.52 63.1953 487.48 63.3766 488.355 63.7393C489.23 64.102 489.966 64.614 490.563 65.2753C491.16 65.9366 491.587 66.7153 491.843 67.6113L488.547 68.4113C488.291 67.7286 487.886 67.1953 487.331 66.8113C486.798 66.406 486.168 66.2033 485.443 66.2033C484.696 66.2033 484.078 66.3953 483.587 66.7793C483.096 67.142 482.851 67.6113 482.851 68.1873C482.851 68.678 483.064 69.0833 483.491 69.4033C483.939 69.7233 484.686 69.9793 485.731 70.1713L486.787 70.3633C488.494 70.662 489.806 71.2486 490.723 72.1233C491.64 72.998 492.099 74.086 492.099 75.3873C492.099 76.1766 491.939 76.9126 491.619 77.5953C491.299 78.2566 490.84 78.8433 490.243 79.3553C489.667 79.846 488.974 80.2193 488.163 80.4753C487.374 80.7526 486.499 80.8913 485.539 80.8913Z" fill="#0E0E0E"/>
<path d="M500.851 80.8913C499.763 80.8913 498.75 80.71 497.811 80.3473C496.894 79.9846 496.105 79.4726 495.443 78.8113C494.803 78.1286 494.345 77.3286 494.067 76.4113L497.395 75.5473C497.673 76.2726 498.121 76.838 498.739 77.2433C499.358 77.6486 500.073 77.8513 500.883 77.8513C501.715 77.8513 502.398 77.6593 502.931 77.2753C503.465 76.87 503.731 76.358 503.731 75.7393C503.731 75.206 503.518 74.758 503.091 74.3953C502.665 74.0326 501.971 73.766 501.011 73.5953L499.955 73.4033C498.163 73.0833 496.809 72.5073 495.891 71.6753C494.995 70.8433 494.547 69.7766 494.547 68.4753C494.547 67.43 494.814 66.5126 495.347 65.7233C495.881 64.934 496.617 64.3153 497.555 63.8673C498.494 63.4193 499.571 63.1953 500.787 63.1953C501.833 63.1953 502.793 63.3766 503.667 63.7393C504.542 64.102 505.278 64.614 505.875 65.2753C506.473 65.9366 506.899 66.7153 507.155 67.6113L503.859 68.4113C503.603 67.7286 503.198 67.1953 502.643 66.8113C502.11 66.406 501.481 66.2033 500.755 66.2033C500.009 66.2033 499.39 66.3953 498.899 66.7793C498.409 67.142 498.163 67.6113 498.163 68.1873C498.163 68.678 498.377 69.0833 498.803 69.4033C499.251 69.7233 499.998 69.9793 501.043 70.1713L502.099 70.3633C503.806 70.662 505.118 71.2486 506.035 72.1233C506.953 72.998 507.411 74.086 507.411 75.3873C507.411 76.1766 507.251 76.9126 506.931 77.5953C506.611 78.2566 506.153 78.8433 505.555 79.3553C504.979 79.846 504.286 80.2193 503.475 80.4753C502.686 80.7526 501.811 80.8913 500.851 80.8913Z" fill="#0E0E0E"/>
<path d="M514.5 59.0033C514.5 59.4086 514.393 59.782 514.18 60.1233C513.988 60.4646 513.721 60.742 513.38 60.9553C513.039 61.1473 512.665 61.2433 512.26 61.2433C511.855 61.2433 511.481 61.1473 511.14 60.9553C510.799 60.742 510.521 60.4646 510.308 60.1233C510.116 59.782 510.02 59.4086 510.02 59.0033C510.02 58.598 510.116 58.2246 510.308 57.8833C510.521 57.542 510.799 57.2753 511.14 57.0833C511.481 56.87 511.855 56.7633 512.26 56.7633C512.665 56.7633 513.039 56.87 513.38 57.0833C513.721 57.2753 513.988 57.542 514.18 57.8833C514.393 58.2246 514.5 58.598 514.5 59.0033ZM510.436 80.4113V63.6753H514.116V80.4113H510.436Z" fill="#0E0E0E"/>
<path d="M518.092 80.4113V63.6753H521.452L521.58 65.9793C522.071 65.126 522.753 64.454 523.628 63.9633C524.524 63.4513 525.548 63.1953 526.7 63.1953C527.959 63.1953 529.047 63.494 529.964 64.0913C530.903 64.6886 531.628 65.5313 532.14 66.6193C532.652 67.7073 532.908 68.9873 532.908 70.4593V80.4113H529.228V70.8753C529.228 69.51 528.919 68.4433 528.3 67.6753C527.703 66.9073 526.86 66.5233 525.772 66.5233C525.004 66.5233 524.311 66.7046 523.692 67.0673C523.095 67.43 522.625 67.9206 522.284 68.5393C521.943 69.158 521.772 69.8726 521.772 70.6833V80.4113H518.092Z" fill="#0E0E0E"/>
<path d="M543.849 80.0913C542.761 80.0913 541.748 79.878 540.809 79.4513C539.871 79.0246 539.049 78.438 538.345 77.6913C537.641 76.9233 537.097 76.038 536.713 75.0353C536.329 74.0113 536.137 72.902 536.137 71.7073C536.137 70.5126 536.329 69.4033 536.713 68.3793C537.119 67.334 537.684 66.4273 538.409 65.6593C539.135 64.8913 539.977 64.294 540.937 63.8673C541.897 63.4193 542.932 63.1953 544.041 63.1953C545.193 63.1953 546.239 63.4513 547.177 63.9633C548.137 64.454 548.905 65.1473 549.481 66.0433L549.609 63.6753H552.969V78.6513C552.969 79.9313 552.767 81.094 552.361 82.1393C551.956 83.206 551.38 84.1126 550.633 84.8593C549.887 85.6273 548.991 86.214 547.945 86.6193C546.921 87.0246 545.769 87.2273 544.489 87.2273C542.783 87.2273 541.289 86.8433 540.009 86.0753C538.729 85.3073 537.727 84.2406 537.001 82.8753L540.489 81.6593C540.959 82.4273 541.545 83.0033 542.249 83.3873C542.953 83.7926 543.743 83.9953 544.617 83.9953C545.556 83.9953 546.377 83.782 547.081 83.3553C547.785 82.95 548.329 82.3633 548.713 81.5953C549.097 80.8486 549.289 79.9633 549.289 78.9393V77.3393C548.692 78.1926 547.924 78.8646 546.985 79.3553C546.047 79.846 545.001 80.0913 543.849 80.0913ZM544.617 76.7633C545.513 76.7633 546.313 76.5393 547.017 76.0913C547.743 75.6433 548.308 75.0353 548.713 74.2673C549.14 73.4993 549.353 72.6246 549.353 71.6433C549.353 70.662 549.14 69.7873 548.713 69.0193C548.308 68.2513 547.743 67.6433 547.017 67.1953C546.313 66.7473 545.513 66.5233 544.617 66.5233C543.721 66.5233 542.921 66.7473 542.217 67.1953C541.513 67.6433 540.948 68.2513 540.521 69.0193C540.116 69.7873 539.913 70.662 539.913 71.6433C539.913 72.6246 540.116 73.4993 540.521 74.2673C540.948 75.0353 541.513 75.6433 542.217 76.0913C542.921 76.5393 543.721 76.7633 544.617 76.7633Z" fill="#0E0E0E"/>
<rect x="672.614" y="118.814" width="272.392" height="62.1187" rx="10" fill="#25A9E0"/>
<rect x="672.614" y="0.695801" width="272.392" height="142.599" rx="11" fill="#9ACA46"/>
<path d="M749.741 59.9072C748.141 59.9072 746.659 59.6192 745.293 59.0432C743.949 58.4459 742.776 57.6139 741.773 56.5472C740.792 55.4806 740.024 54.2326 739.469 52.8032C738.915 51.3526 738.637 49.7739 738.637 48.0672C738.637 46.7019 738.819 45.4112 739.181 44.1952C739.544 42.9579 740.056 41.8379 740.717 40.8352C741.4 39.8112 742.2 38.9366 743.117 38.2112C744.035 37.4646 745.048 36.8992 746.157 36.5152C747.288 36.1099 748.483 35.9072 749.741 35.9072C751.213 35.9072 752.579 36.1739 753.837 36.7072C755.117 37.2192 756.216 37.9552 757.133 38.9152C758.072 39.8539 758.776 40.9739 759.245 42.2752L755.501 43.3312C754.947 42.1152 754.157 41.1766 753.133 40.5152C752.131 39.8326 750.989 39.4912 749.709 39.4912C748.707 39.4912 747.779 39.7046 746.925 40.1312C746.072 40.5579 745.325 41.1552 744.685 41.9232C744.045 42.6912 743.544 43.5979 743.181 44.6432C742.84 45.6886 742.669 46.8192 742.669 48.0352C742.669 49.2512 742.84 50.3712 743.181 51.3952C743.544 52.3979 744.035 53.2726 744.653 54.0192C745.293 54.7446 746.04 55.3099 746.893 55.7152C747.768 56.1206 748.728 56.3232 749.773 56.3232C751.096 56.3232 752.259 55.9926 753.261 55.3312C754.285 54.6699 755.107 53.7206 755.725 52.4832L759.469 53.5392C758.979 54.8406 758.264 55.9712 757.325 56.9312C756.387 57.8912 755.267 58.6272 753.965 59.1392C752.664 59.6512 751.256 59.9072 749.741 59.9072Z" fill="#0E0E0E"/>
<path d="M770.394 59.7472C769.178 59.7472 768.047 59.5339 767.002 59.1072C765.978 58.6592 765.082 58.0406 764.314 57.2512C763.546 56.4406 762.949 55.5019 762.522 54.4352C762.095 53.3472 761.882 52.1632 761.882 50.8832C761.882 49.6246 762.095 48.4619 762.522 47.3952C762.949 46.3072 763.546 45.3686 764.314 44.5792C765.103 43.7686 766.021 43.1499 767.066 42.7232C768.133 42.2752 769.285 42.0512 770.522 42.0512C771.738 42.0512 772.858 42.2752 773.882 42.7232C774.927 43.1499 775.834 43.7686 776.602 44.5792C777.37 45.3686 777.967 46.2966 778.394 47.3632C778.821 48.4299 779.034 49.6032 779.034 50.8832C779.034 52.1632 778.821 53.3472 778.394 54.4352C777.967 55.5019 777.359 56.4406 776.57 57.2512C775.802 58.0406 774.885 58.6592 773.818 59.1072C772.773 59.5339 771.631 59.7472 770.394 59.7472ZM770.458 56.4192C771.375 56.4192 772.197 56.1846 772.922 55.7152C773.647 55.2246 774.213 54.5632 774.618 53.7312C775.045 52.8992 775.258 51.9499 775.258 50.8832C775.258 49.8166 775.045 48.8779 774.618 48.0672C774.213 47.2352 773.647 46.5846 772.922 46.1152C772.197 45.6246 771.375 45.3792 770.458 45.3792C769.541 45.3792 768.719 45.6246 767.994 46.1152C767.269 46.5846 766.693 47.2352 766.266 48.0672C765.861 48.8779 765.658 49.8166 765.658 50.8832C765.658 51.9499 765.861 52.8992 766.266 53.7312C766.693 54.5632 767.269 55.2246 767.994 55.7152C768.719 56.1846 769.541 56.4192 770.458 56.4192Z" fill="#0E0E0E"/>
<path d="M782.274 59.2672V42.5312H785.634L785.762 44.8352C786.253 43.9819 786.936 43.3099 787.81 42.8192C788.706 42.3072 789.73 42.0512 790.882 42.0512C792.141 42.0512 793.229 42.3499 794.146 42.9472C795.085 43.5446 795.81 44.3872 796.322 45.4752C796.834 46.5632 797.09 47.8432 797.09 49.3152V59.2672H793.41V49.7312C793.41 48.3659 793.101 47.2992 792.482 46.5312C791.885 45.7632 791.042 45.3792 789.954 45.3792C789.186 45.3792 788.493 45.5606 787.874 45.9232C787.277 46.2859 786.808 46.7766 786.466 47.3952C786.125 48.0139 785.954 48.7286 785.954 49.5392V59.2672H782.274Z" fill="#0E0E0E"/>
<path d="M807.499 59.7472C805.813 59.7472 804.491 59.2672 803.531 58.3072C802.571 57.3259 802.091 55.9286 802.091 54.1152V45.5072H799.147V42.5312H802.091V36.8672H805.771V42.5312H810.635V45.5072H805.771V53.7312C805.771 54.6272 805.952 55.3206 806.315 55.8112C806.699 56.2806 807.253 56.5152 807.979 56.5152C808.363 56.5152 808.779 56.4619 809.227 56.3552C809.675 56.2272 810.091 56.0566 810.475 55.8432L811.307 58.6272C810.816 58.9686 810.24 59.2352 809.579 59.4272C808.939 59.6406 808.245 59.7472 807.499 59.7472Z" fill="#0E0E0E"/>
<path d="M814.212 59.2672V42.5312H817.572L817.732 45.2832C818.158 44.3446 818.745 43.6192 819.492 43.1072C820.26 42.5739 821.156 42.3072 822.18 42.3072C822.5 42.3072 822.809 42.3286 823.108 42.3712C823.406 42.4139 823.673 42.4886 823.908 42.5952L823.492 46.1792C823.257 46.0939 823.012 46.0406 822.756 46.0192C822.5 45.9766 822.244 45.9552 821.988 45.9552C820.708 45.9552 819.705 46.3819 818.98 47.2352C818.254 48.0886 817.892 49.2726 817.892 50.7872V59.2672H814.212Z" fill="#0E0E0E"/>
<path d="M831.332 59.7472C830.478 59.7472 829.689 59.6192 828.964 59.3632C828.26 59.1072 827.641 58.7446 827.108 58.2752C826.574 57.8059 826.158 57.2512 825.86 56.6112C825.561 55.9712 825.412 55.2672 825.412 54.4992C825.412 53.4326 825.689 52.5046 826.244 51.7152C826.82 50.9046 827.62 50.2752 828.644 49.8272C829.668 49.3792 830.862 49.1552 832.228 49.1552C832.974 49.1552 833.689 49.2299 834.372 49.3792C835.054 49.5072 835.705 49.6992 836.324 49.9552V48.8992C836.324 48.1526 836.185 47.5019 835.908 46.9472C835.63 46.3712 835.236 45.9232 834.724 45.6032C834.212 45.2832 833.593 45.1232 832.868 45.1232C832.1 45.1232 831.406 45.3259 830.788 45.7312C830.169 46.1366 829.71 46.7019 829.412 47.4272L826.02 46.6592C826.276 45.7206 826.734 44.9099 827.396 44.2272C828.078 43.5446 828.889 43.0112 829.828 42.6272C830.788 42.2432 831.822 42.0512 832.932 42.0512C833.977 42.0512 834.926 42.2219 835.78 42.5632C836.654 42.9046 837.401 43.3846 838.02 44.0032C838.638 44.6219 839.118 45.3579 839.46 46.2112C839.801 47.0646 839.972 48.0139 839.972 49.0592V59.2672H836.612L836.484 57.0592C836.036 57.8699 835.364 58.5206 834.468 59.0112C833.572 59.5019 832.526 59.7472 831.332 59.7472ZM829.124 54.3392C829.124 54.8086 829.252 55.2352 829.508 55.6192C829.764 55.9819 830.116 56.2699 830.564 56.4832C831.033 56.6966 831.577 56.8032 832.196 56.8032C832.985 56.8032 833.689 56.6326 834.308 56.2912C834.926 55.9499 835.417 55.4912 835.78 54.9152C836.142 54.3179 836.324 53.6459 836.324 52.8992V52.5152C835.769 52.2806 835.193 52.0992 834.596 51.9712C834.02 51.8219 833.422 51.7472 832.804 51.7472C831.694 51.7472 830.798 51.9819 830.116 52.4512C829.454 52.9206 829.124 53.5499 829.124 54.3392Z" fill="#0E0E0E"/>
<path d="M851.483 59.7472C850.288 59.7472 849.189 59.5339 848.187 59.1072C847.184 58.6592 846.309 58.0512 845.563 57.2832C844.816 56.4939 844.229 55.5659 843.803 54.4992C843.397 53.4326 843.195 52.2699 843.195 51.0112C843.195 49.7526 843.408 48.5792 843.835 47.4912C844.261 46.4032 844.848 45.4539 845.595 44.6432C846.341 43.8326 847.216 43.2032 848.219 42.7552C849.243 42.2859 850.352 42.0512 851.547 42.0512C852.699 42.0512 853.755 42.2646 854.715 42.6912C855.675 43.0966 856.496 43.6832 857.179 44.4512C857.883 45.1979 858.384 46.0832 858.683 47.1072L855.195 47.9392C854.832 47.1286 854.32 46.4992 853.659 46.0512C853.019 45.6032 852.293 45.3792 851.483 45.3792C850.629 45.3792 849.861 45.6246 849.179 46.1152C848.496 46.6059 847.952 47.2779 847.547 48.1312C847.163 48.9632 846.971 49.9126 846.971 50.9792C846.971 52.0246 847.163 52.9632 847.547 53.7952C847.931 54.6059 848.453 55.2459 849.115 55.7152C849.797 56.1846 850.587 56.4192 851.483 56.4192C852.336 56.4192 853.115 56.2059 853.819 55.7792C854.523 55.3312 855.045 54.7019 855.387 53.8912L858.843 54.6912C858.544 55.7152 858.032 56.6112 857.307 57.3792C856.581 58.1259 855.717 58.7126 854.715 59.1392C853.712 59.5446 852.635 59.7472 851.483 59.7472Z" fill="#0E0E0E"/>
<path d="M868.655 59.7472C866.97 59.7472 865.647 59.2672 864.687 58.3072C863.727 57.3259 863.247 55.9286 863.247 54.1152V45.5072H860.303V42.5312H863.247V36.8672H866.927V42.5312H871.791V45.5072H866.927V53.7312C866.927 54.6272 867.108 55.3206 867.471 55.8112C867.855 56.2806 868.41 56.5152 869.135 56.5152C869.519 56.5152 869.935 56.4619 870.383 56.3552C870.831 56.2272 871.247 56.0566 871.631 55.8432L872.463 58.6272C871.972 58.9686 871.396 59.2352 870.735 59.4272C870.095 59.6406 869.402 59.7472 868.655 59.7472Z" fill="#0E0E0E"/>
<path d="M700.265 101.267V78.5472H704.041L711.593 92.4672L719.177 78.5472H722.793V101.267H718.921V85.5872L712.969 96.5312H710.089L704.137 85.5872V101.267H700.265Z" fill="#0E0E0E"/>
<path d="M732.129 101.747C731.275 101.747 730.486 101.619 729.761 101.363C729.057 101.107 728.438 100.745 727.905 100.275C727.371 99.8059 726.955 99.2512 726.657 98.6112C726.358 97.9712 726.209 97.2672 726.209 96.4992C726.209 95.4326 726.486 94.5046 727.041 93.7152C727.617 92.9046 728.417 92.2752 729.441 91.8272C730.465 91.3792 731.659 91.1552 733.025 91.1552C733.771 91.1552 734.486 91.2299 735.169 91.3792C735.851 91.5072 736.502 91.6992 737.121 91.9552V90.8992C737.121 90.1526 736.982 89.5019 736.705 88.9472C736.427 88.3712 736.033 87.9232 735.521 87.6032C735.009 87.2832 734.39 87.1232 733.665 87.1232C732.897 87.1232 732.203 87.3259 731.585 87.7312C730.966 88.1366 730.507 88.7019 730.209 89.4272L726.817 88.6592C727.073 87.7206 727.531 86.9099 728.193 86.2272C728.875 85.5446 729.686 85.0112 730.625 84.6272C731.585 84.2432 732.619 84.0512 733.729 84.0512C734.774 84.0512 735.723 84.2219 736.577 84.5632C737.451 84.9046 738.198 85.3846 738.817 86.0032C739.435 86.6219 739.915 87.3579 740.257 88.2112C740.598 89.0646 740.769 90.0139 740.769 91.0592V101.267H737.409L737.281 99.0592C736.833 99.8699 736.161 100.521 735.265 101.011C734.369 101.502 733.323 101.747 732.129 101.747ZM729.921 96.3392C729.921 96.8086 730.049 97.2352 730.305 97.6192C730.561 97.9819 730.913 98.2699 731.361 98.4832C731.83 98.6966 732.374 98.8032 732.993 98.8032C733.782 98.8032 734.486 98.6326 735.105 98.2912C735.723 97.9499 736.214 97.4912 736.577 96.9152C736.939 96.3179 737.121 95.6459 737.121 94.8992V94.5152C736.566 94.2806 735.99 94.0992 735.393 93.9712C734.817 93.8219 734.219 93.7472 733.601 93.7472C732.491 93.7472 731.595 93.9819 730.913 94.4512C730.251 94.9206 729.921 95.5499 729.921 96.3392Z" fill="#0E0E0E"/>
<path d="M744.727 101.267V84.5312H748.087L748.215 86.8352C748.706 85.9819 749.389 85.3099 750.263 84.8192C751.159 84.3072 752.183 84.0512 753.335 84.0512C754.594 84.0512 755.682 84.3499 756.599 84.9472C757.538 85.5446 758.263 86.3872 758.775 87.4752C759.287 88.5632 759.543 89.8432 759.543 91.3152V101.267H755.863V91.7312C755.863 90.3659 755.554 89.2992 754.935 88.5312C754.338 87.7632 753.495 87.3792 752.407 87.3792C751.639 87.3792 750.946 87.5606 750.327 87.9232C749.73 88.2859 749.261 88.7766 748.919 89.3952C748.578 90.0139 748.407 90.7286 748.407 91.5392V101.267H744.727Z" fill="#0E0E0E"/>
<path d="M770.869 101.747C769.375 101.747 768.074 101.427 766.965 100.787C765.877 100.147 765.023 99.2406 764.405 98.0672C763.807 96.8726 763.509 95.4752 763.509 93.8752V84.5312H767.189V93.9392C767.189 95.3259 767.519 96.4246 768.181 97.2352C768.842 98.0246 769.749 98.4192 770.901 98.4192C772.053 98.4192 772.959 98.0246 773.621 97.2352C774.282 96.4246 774.613 95.3259 774.613 93.9392V84.5312H778.293V93.8752C778.293 95.4539 777.983 96.8406 777.365 98.0352C776.767 99.2086 775.914 100.126 774.805 100.787C773.695 101.427 772.383 101.747 770.869 101.747Z" fill="#0E0E0E"/>
<path d="M783.763 101.267V87.5072H780.819V84.5312H783.763V83.3472C783.763 82.1099 784.019 81.0326 784.531 80.1152C785.043 79.1766 785.747 78.4512 786.643 77.9392C787.539 77.4059 788.563 77.1392 789.715 77.1392C790.376 77.1392 790.973 77.2246 791.507 77.3952C792.061 77.5446 792.552 77.7366 792.979 77.9712L792.147 80.7872C791.869 80.6379 791.549 80.5206 791.187 80.4352C790.845 80.3286 790.504 80.2752 790.163 80.2752C789.245 80.2752 788.563 80.5632 788.115 81.1392C787.667 81.6939 787.443 82.4939 787.443 83.5392V84.5312H792.243V87.5072H787.443V101.267H783.763Z" fill="#0E0E0E"/>
<path d="M799.629 101.747C798.775 101.747 797.986 101.619 797.261 101.363C796.557 101.107 795.938 100.745 795.405 100.275C794.871 99.8059 794.455 99.2512 794.157 98.6112C793.858 97.9712 793.709 97.2672 793.709 96.4992C793.709 95.4326 793.986 94.5046 794.541 93.7152C795.117 92.9046 795.917 92.2752 796.941 91.8272C797.965 91.3792 799.159 91.1552 800.525 91.1552C801.271 91.1552 801.986 91.2299 802.669 91.3792C803.351 91.5072 804.002 91.6992 804.621 91.9552V90.8992C804.621 90.1526 804.482 89.5019 804.205 88.9472C803.927 88.3712 803.533 87.9232 803.021 87.6032C802.509 87.2832 801.89 87.1232 801.165 87.1232C800.397 87.1232 799.703 87.3259 799.085 87.7312C798.466 88.1366 798.007 88.7019 797.709 89.4272L794.317 88.6592C794.573 87.7206 795.031 86.9099 795.693 86.2272C796.375 85.5446 797.186 85.0112 798.125 84.6272C799.085 84.2432 800.119 84.0512 801.229 84.0512C802.274 84.0512 803.223 84.2219 804.077 84.5632C804.951 84.9046 805.698 85.3846 806.317 86.0032C806.935 86.6219 807.415 87.3579 807.757 88.2112C808.098 89.0646 808.269 90.0139 808.269 91.0592V101.267H804.909L804.781 99.0592C804.333 99.8699 803.661 100.521 802.765 101.011C801.869 101.502 800.823 101.747 799.629 101.747ZM797.421 96.3392C797.421 96.8086 797.549 97.2352 797.805 97.6192C798.061 97.9819 798.413 98.2699 798.861 98.4832C799.33 98.6966 799.874 98.8032 800.493 98.8032C801.282 98.8032 801.986 98.6326 802.605 98.2912C803.223 97.9499 803.714 97.4912 804.077 96.9152C804.439 96.3179 804.621 95.6459 804.621 94.8992V94.5152C804.066 94.2806 803.49 94.0992 802.893 93.9712C802.317 93.8219 801.719 93.7472 801.101 93.7472C799.991 93.7472 799.095 93.9819 798.413 94.4512C797.751 94.9206 797.421 95.5499 797.421 96.3392Z" fill="#0E0E0E"/>
<path d="M819.779 101.747C818.585 101.747 817.486 101.534 816.483 101.107C815.481 100.659 814.606 100.051 813.859 99.2832C813.113 98.4939 812.526 97.5659 812.099 96.4992C811.694 95.4326 811.491 94.2699 811.491 93.0112C811.491 91.7526 811.705 90.5792 812.131 89.4912C812.558 88.4032 813.145 87.4539 813.891 86.6432C814.638 85.8326 815.513 85.2032 816.515 84.7552C817.539 84.2859 818.649 84.0512 819.843 84.0512C820.995 84.0512 822.051 84.2646 823.011 84.6912C823.971 85.0966 824.793 85.6832 825.475 86.4512C826.179 87.1979 826.681 88.0832 826.979 89.1072L823.491 89.9392C823.129 89.1286 822.617 88.4992 821.955 88.0512C821.315 87.6032 820.59 87.3792 819.779 87.3792C818.926 87.3792 818.158 87.6246 817.475 88.1152C816.793 88.6059 816.249 89.2779 815.843 90.1312C815.459 90.9632 815.267 91.9126 815.267 92.9792C815.267 94.0246 815.459 94.9632 815.843 95.7952C816.227 96.6059 816.75 97.2459 817.411 97.7152C818.094 98.1846 818.883 98.4192 819.779 98.4192C820.633 98.4192 821.411 98.2059 822.115 97.7792C822.819 97.3312 823.342 96.7019 823.683 95.8912L827.139 96.6912C826.841 97.7152 826.329 98.6112 825.603 99.3792C824.878 100.126 824.014 100.713 823.011 101.139C822.009 101.545 820.931 101.747 819.779 101.747Z" fill="#0E0E0E"/>
<path d="M836.952 101.747C835.267 101.747 833.944 101.267 832.984 100.307C832.024 99.3259 831.544 97.9286 831.544 96.1152V87.5072H828.6V84.5312H831.544V78.8672H835.224V84.5312H840.088V87.5072H835.224V95.7312C835.224 96.6272 835.405 97.3206 835.768 97.8112C836.152 98.2806 836.707 98.5152 837.432 98.5152C837.816 98.5152 838.232 98.4619 838.68 98.3552C839.128 98.2272 839.544 98.0566 839.928 97.8432L840.76 100.627C840.269 100.969 839.693 101.235 839.032 101.427C838.392 101.641 837.699 101.747 836.952 101.747Z" fill="#0E0E0E"/>
<path d="M851.025 101.747C849.532 101.747 848.23 101.427 847.121 100.787C846.033 100.147 845.18 99.2406 844.561 98.0672C843.964 96.8726 843.665 95.4752 843.665 93.8752V84.5312H847.345V93.9392C847.345 95.3259 847.676 96.4246 848.337 97.2352C848.998 98.0246 849.905 98.4192 851.057 98.4192C852.209 98.4192 853.116 98.0246 853.777 97.2352C854.438 96.4246 854.769 95.3259 854.769 93.9392V84.5312H858.449V93.8752C858.449 95.4539 858.14 96.8406 857.521 98.0352C856.924 99.2086 856.07 100.126 854.961 100.787C853.852 101.427 852.54 101.747 851.025 101.747Z" fill="#0E0E0E"/>
<path d="M862.415 101.267V84.5312H865.775L865.935 87.2832C866.362 86.3446 866.948 85.6192 867.695 85.1072C868.463 84.5739 869.359 84.3072 870.383 84.3072C870.703 84.3072 871.012 84.3286 871.311 84.3712C871.61 84.4139 871.876 84.4886 872.111 84.5952L871.695 88.1792C871.46 88.0939 871.215 88.0406 870.959 88.0192C870.703 87.9766 870.447 87.9552 870.191 87.9552C868.911 87.9552 867.908 88.3819 867.183 89.2352C866.458 90.0886 866.095 91.2726 866.095 92.7872V101.267H862.415Z" fill="#0E0E0E"/>
<path d="M878.885 79.8592C878.885 80.2646 878.778 80.6379 878.565 80.9792C878.373 81.3206 878.106 81.5979 877.765 81.8112C877.424 82.0032 877.05 82.0992 876.645 82.0992C876.24 82.0992 875.866 82.0032 875.525 81.8112C875.184 81.5979 874.906 81.3206 874.693 80.9792C874.501 80.6379 874.405 80.2646 874.405 79.8592C874.405 79.4539 874.501 79.0806 874.693 78.7392C874.906 78.3979 875.184 78.1312 875.525 77.9392C875.866 77.7259 876.24 77.6192 876.645 77.6192C877.05 77.6192 877.424 77.7259 877.765 77.9392C878.106 78.1312 878.373 78.3979 878.565 78.7392C878.778 79.0806 878.885 79.4539 878.885 79.8592ZM874.821 101.267V84.5312H878.501V101.267H874.821Z" fill="#0E0E0E"/>
<path d="M882.477 101.267V84.5312H885.837L885.965 86.8352C886.456 85.9819 887.139 85.3099 888.013 84.8192C888.909 84.3072 889.933 84.0512 891.085 84.0512C892.344 84.0512 893.432 84.3499 894.349 84.9472C895.288 85.5446 896.013 86.3872 896.525 87.4752C897.037 88.5632 897.293 89.8432 897.293 91.3152V101.267H893.613V91.7312C893.613 90.3659 893.304 89.2992 892.685 88.5312C892.088 87.7632 891.245 87.3792 890.157 87.3792C889.389 87.3792 888.696 87.5606 888.077 87.9232C887.48 88.2859 887.011 88.7766 886.669 89.3952C886.328 90.0139 886.157 90.7286 886.157 91.5392V101.267H882.477Z" fill="#0E0E0E"/>
<path d="M908.235 100.947C907.147 100.947 906.133 100.734 905.195 100.307C904.256 99.8806 903.435 99.2939 902.731 98.5472C902.027 97.7792 901.483 96.8939 901.099 95.8912C900.715 94.8672 900.523 93.7579 900.523 92.5632C900.523 91.3686 900.715 90.2592 901.099 89.2352C901.504 88.1899 902.069 87.2832 902.795 86.5152C903.52 85.7472 904.363 85.1499 905.323 84.7232C906.283 84.2752 907.317 84.0512 908.427 84.0512C909.579 84.0512 910.624 84.3072 911.563 84.8192C912.523 85.3099 913.291 86.0032 913.867 86.8992L913.995 84.5312H917.355V99.5072C917.355 100.787 917.152 101.95 916.747 102.995C916.341 104.062 915.765 104.969 915.019 105.715C914.272 106.483 913.376 107.07 912.331 107.475C911.307 107.881 910.155 108.083 908.875 108.083C907.168 108.083 905.675 107.699 904.395 106.931C903.115 106.163 902.112 105.097 901.387 103.731L904.875 102.515C905.344 103.283 905.931 103.859 906.635 104.243C907.339 104.649 908.128 104.851 909.003 104.851C909.941 104.851 910.763 104.638 911.467 104.211C912.171 103.806 912.715 103.219 913.099 102.451C913.483 101.705 913.675 100.819 913.675 99.7952V98.1952C913.077 99.0486 912.309 99.7206 911.371 100.211C910.432 100.702 909.387 100.947 908.235 100.947ZM909.003 97.6192C909.899 97.6192 910.699 97.3952 911.403 96.9472C912.128 96.4992 912.693 95.8912 913.099 95.1232C913.525 94.3552 913.739 93.4806 913.739 92.4992C913.739 91.5179 913.525 90.6432 913.099 89.8752C912.693 89.1072 912.128 88.4992 911.403 88.0512C910.699 87.6032 909.899 87.3792 909.003 87.3792C908.107 87.3792 907.307 87.6032 906.603 88.0512C905.899 88.4992 905.333 89.1072 904.907 89.8752C904.501 90.6432 904.299 91.5179 904.299 92.4992C904.299 93.4806 904.501 94.3552 904.907 95.1232C905.333 95.8912 905.899 96.4992 906.603 96.9472C907.307 97.3952 908.107 97.6192 909.003 97.6192Z" fill="#0E0E0E"/>
<rect x="1008.42" y="118.814" width="272.392" height="62.1187" rx="10" fill="#25A9E0"/>
<rect x="1008.42" y="0.695801" width="272.392" height="142.599" rx="11" fill="#9ACA46"/>
<path d="M1075.29 80.4914V61.2593H1068.67V57.7713H1085.82V61.2593H1079.2V80.4914H1075.29Z" fill="#0E0E0E"/>
<path d="M1094.05 80.9713C1092.84 80.9713 1091.71 80.758 1090.66 80.3314C1089.64 79.8834 1088.74 79.2647 1087.97 78.4753C1087.21 77.6647 1086.61 76.726 1086.18 75.6593C1085.76 74.5714 1085.54 73.3874 1085.54 72.1073C1085.54 70.8487 1085.76 69.686 1086.18 68.6193C1086.61 67.5313 1087.21 66.5927 1087.97 65.8034C1088.76 64.9927 1089.68 64.374 1090.73 63.9473C1091.79 63.4993 1092.94 63.2753 1094.18 63.2753C1095.4 63.2753 1096.52 63.4993 1097.54 63.9473C1098.59 64.374 1099.49 64.9927 1100.26 65.8034C1101.03 66.5927 1101.63 67.5207 1102.05 68.5874C1102.48 69.654 1102.69 70.8273 1102.69 72.1073C1102.69 73.3874 1102.48 74.5714 1102.05 75.6593C1101.63 76.726 1101.02 77.6647 1100.23 78.4753C1099.46 79.2647 1098.54 79.8834 1097.48 80.3314C1096.43 80.758 1095.29 80.9713 1094.05 80.9713ZM1094.12 77.6434C1095.04 77.6434 1095.86 77.4087 1096.58 76.9394C1097.31 76.4487 1097.87 75.7874 1098.28 74.9554C1098.7 74.1234 1098.92 73.174 1098.92 72.1073C1098.92 71.0407 1098.7 70.102 1098.28 69.2913C1097.87 68.4593 1097.31 67.8087 1096.58 67.3393C1095.86 66.8487 1095.04 66.6033 1094.12 66.6033C1093.2 66.6033 1092.38 66.8487 1091.65 67.3393C1090.93 67.8087 1090.35 68.4593 1089.93 69.2913C1089.52 70.102 1089.32 71.0407 1089.32 72.1073C1089.32 73.174 1089.52 74.1234 1089.93 74.9554C1090.35 75.7874 1090.93 76.4487 1091.65 76.9394C1092.38 77.4087 1093.2 77.6434 1094.12 77.6434Z" fill="#0E0E0E"/>
<path d="M1105.93 80.4914V56.6833H1109.61V80.4914H1105.93Z" fill="#0E0E0E"/>
<path d="M1113.59 80.4914V56.6833H1117.27V80.4914H1113.59Z" fill="#0E0E0E"/>
<path d="M1128.32 80.4914V57.7713H1132.09L1139.64 71.6914L1147.23 57.7713H1150.84V80.4914H1146.97V64.8113L1141.02 75.7554H1138.14L1132.19 64.8113V80.4914H1128.32Z" fill="#0E0E0E"/>
<path d="M1159.12 59.0833C1159.12 59.4887 1159.02 59.862 1158.8 60.2034C1158.61 60.5447 1158.34 60.822 1158 61.0353C1157.66 61.2273 1157.29 61.3233 1156.88 61.3233C1156.48 61.3233 1156.1 61.2273 1155.76 61.0353C1155.42 60.822 1155.14 60.5447 1154.93 60.2034C1154.74 59.862 1154.64 59.4887 1154.64 59.0833C1154.64 58.678 1154.74 58.3047 1154.93 57.9633C1155.14 57.622 1155.42 57.3553 1155.76 57.1633C1156.1 56.95 1156.48 56.8433 1156.88 56.8433C1157.29 56.8433 1157.66 56.95 1158 57.1633C1158.34 57.3553 1158.61 57.622 1158.8 57.9633C1159.02 58.3047 1159.12 58.678 1159.12 59.0833ZM1155.06 80.4914V63.7554H1158.74V80.4914H1155.06Z" fill="#0E0E0E"/>
<path d="M1162.72 80.4914V56.6833H1166.4V80.4914H1162.72Z" fill="#0E0E0E"/>
<path d="M1170.37 80.4914V56.6833H1174.05V80.4914H1170.37Z" fill="#0E0E0E"/>
<path d="M1182.09 59.0833C1182.09 59.4887 1181.99 59.862 1181.77 60.2034C1181.58 60.5447 1181.31 60.822 1180.97 61.0353C1180.63 61.2273 1180.26 61.3233 1179.85 61.3233C1179.45 61.3233 1179.07 61.2273 1178.73 61.0353C1178.39 60.822 1178.11 60.5447 1177.9 60.2034C1177.71 59.862 1177.61 59.4887 1177.61 59.0833C1177.61 58.678 1177.71 58.3047 1177.9 57.9633C1178.11 57.622 1178.39 57.3553 1178.73 57.1633C1179.07 56.95 1179.45 56.8433 1179.85 56.8433C1180.26 56.8433 1180.63 56.95 1180.97 57.1633C1181.31 57.3553 1181.58 57.622 1181.77 57.9633C1181.99 58.3047 1182.09 58.678 1182.09 59.0833ZM1178.03 80.4914V63.7554H1181.71V80.4914H1178.03Z" fill="#0E0E0E"/>
<path d="M1185.68 80.4914V63.7554H1189.04L1189.17 66.0593C1189.66 65.206 1190.35 64.534 1191.22 64.0434C1192.12 63.5313 1193.14 63.2753 1194.29 63.2753C1195.55 63.2753 1196.64 63.574 1197.56 64.1713C1198.5 64.7687 1199.22 65.6114 1199.73 66.6994C1200.24 67.7874 1200.5 69.0674 1200.5 70.5394V80.4914H1196.82V70.9554C1196.82 69.59 1196.51 68.5234 1195.89 67.7554C1195.3 66.9874 1194.45 66.6033 1193.36 66.6033C1192.6 66.6033 1191.9 66.7847 1191.28 67.1473C1190.69 67.51 1190.22 68.0007 1189.88 68.6193C1189.54 69.238 1189.36 69.9527 1189.36 70.7633V80.4914H1185.68Z" fill="#0E0E0E"/>
<path d="M1211.44 80.1714C1210.35 80.1714 1209.34 79.958 1208.4 79.5314C1207.46 79.1047 1206.64 78.518 1205.94 77.7714C1205.23 77.0034 1204.69 76.118 1204.31 75.1154C1203.92 74.0914 1203.73 72.982 1203.73 71.7873C1203.73 70.5927 1203.92 69.4833 1204.31 68.4593C1204.71 67.414 1205.28 66.5073 1206 65.7393C1206.73 64.9713 1207.57 64.374 1208.53 63.9473C1209.49 63.4993 1210.52 63.2753 1211.63 63.2753C1212.79 63.2753 1213.83 63.5313 1214.77 64.0434C1215.73 64.534 1216.5 65.2274 1217.07 66.1234L1217.2 63.7554H1220.56V78.7313C1220.56 80.0114 1220.36 81.174 1219.95 82.2194C1219.55 83.286 1218.97 84.1927 1218.23 84.9394C1217.48 85.7074 1216.58 86.294 1215.54 86.6994C1214.51 87.1047 1213.36 87.3074 1212.08 87.3074C1210.37 87.3074 1208.88 86.9234 1207.6 86.1554C1206.32 85.3874 1205.32 84.3207 1204.59 82.9554L1208.08 81.7394C1208.55 82.5074 1209.14 83.0834 1209.84 83.4674C1210.55 83.8727 1211.33 84.0753 1212.21 84.0753C1213.15 84.0753 1213.97 83.862 1214.67 83.4354C1215.38 83.03 1215.92 82.4433 1216.31 81.6753C1216.69 80.9287 1216.88 80.0434 1216.88 79.0194V77.4193C1216.28 78.2727 1215.52 78.9447 1214.58 79.4354C1213.64 79.926 1212.59 80.1714 1211.44 80.1714ZM1212.21 76.8433C1213.11 76.8433 1213.91 76.6194 1214.61 76.1714C1215.33 75.7234 1215.9 75.1153 1216.31 74.3473C1216.73 73.5793 1216.95 72.7047 1216.95 71.7233C1216.95 70.742 1216.73 69.8673 1216.31 69.0993C1215.9 68.3313 1215.33 67.7234 1214.61 67.2754C1213.91 66.8274 1213.11 66.6033 1212.21 66.6033C1211.31 66.6033 1210.51 66.8274 1209.81 67.2754C1209.11 67.7234 1208.54 68.3313 1208.11 69.0993C1207.71 69.8673 1207.51 70.742 1207.51 71.7233C1207.51 72.7047 1207.71 73.5793 1208.11 74.3473C1208.54 75.1153 1209.11 75.7234 1209.81 76.1714C1210.51 76.6194 1211.31 76.8433 1212.21 76.8433Z" fill="#0E0E0E"/>
<rect x="168.997" y="356.983" width="272.392" height="63.1852" rx="10" fill="#25A9E0"/>
<rect x="168.997" y="239.931" width="272.392" height="142.599" rx="11" fill="#9ACA46"/>
<path d="M229.32 319.727V297.007H236.2C238.013 297.007 239.56 297.305 240.84 297.903C242.141 298.5 243.133 299.353 243.816 300.463C244.52 301.572 244.872 302.916 244.872 304.495C244.872 305.988 244.509 307.3 243.784 308.431C243.058 309.54 242.034 310.404 240.712 311.023C239.389 311.62 237.832 311.919 236.04 311.919C235.613 311.919 235.154 311.897 234.664 311.855C234.194 311.812 233.693 311.759 233.16 311.695V319.727H229.32ZM233.16 300.399V308.303C233.629 308.367 234.098 308.42 234.568 308.463C235.037 308.505 235.474 308.527 235.88 308.527C237.501 308.527 238.738 308.175 239.592 307.471C240.466 306.767 240.904 305.764 240.904 304.463C240.904 303.183 240.488 302.191 239.656 301.487C238.824 300.761 237.65 300.399 236.136 300.399H233.16Z" fill="#0E0E0E"/>
<path d="M252.465 320.207C251.612 320.207 250.822 320.079 250.097 319.823C249.393 319.567 248.774 319.204 248.241 318.735C247.708 318.265 247.292 317.711 246.993 317.071C246.694 316.431 246.545 315.727 246.545 314.959C246.545 313.892 246.822 312.964 247.377 312.175C247.953 311.364 248.753 310.735 249.777 310.287C250.801 309.839 251.996 309.615 253.361 309.615C254.108 309.615 254.822 309.689 255.505 309.839C256.188 309.967 256.838 310.159 257.457 310.415V309.359C257.457 308.612 257.318 307.961 257.041 307.407C256.764 306.831 256.369 306.383 255.857 306.063C255.345 305.743 254.726 305.583 254.001 305.583C253.233 305.583 252.54 305.785 251.921 306.191C251.302 306.596 250.844 307.161 250.545 307.887L247.153 307.119C247.409 306.18 247.868 305.369 248.529 304.687C249.212 304.004 250.022 303.471 250.961 303.087C251.921 302.703 252.956 302.511 254.065 302.511C255.11 302.511 256.06 302.681 256.913 303.023C257.788 303.364 258.534 303.844 259.153 304.463C259.772 305.081 260.252 305.817 260.593 306.671C260.934 307.524 261.105 308.473 261.105 309.519V319.727H257.745L257.617 317.519C257.169 318.329 256.497 318.98 255.601 319.471C254.705 319.961 253.66 320.207 252.465 320.207ZM250.257 314.799C250.257 315.268 250.385 315.695 250.641 316.079C250.897 316.441 251.249 316.729 251.697 316.943C252.166 317.156 252.71 317.263 253.329 317.263C254.118 317.263 254.822 317.092 255.441 316.751C256.06 316.409 256.55 315.951 256.913 315.375C257.276 314.777 257.457 314.105 257.457 313.359V312.975C256.902 312.74 256.326 312.559 255.729 312.431C255.153 312.281 254.556 312.207 253.937 312.207C252.828 312.207 251.932 312.441 251.249 312.911C250.588 313.38 250.257 314.009 250.257 314.799Z" fill="#0E0E0E"/>
<path d="M272.616 320.207C271.421 320.207 270.322 319.993 269.32 319.567C268.317 319.119 267.442 318.511 266.696 317.743C265.949 316.953 265.362 316.025 264.936 314.959C264.53 313.892 264.328 312.729 264.328 311.471C264.328 310.212 264.541 309.039 264.968 307.951C265.394 306.863 265.981 305.913 266.728 305.103C267.474 304.292 268.349 303.663 269.352 303.215C270.376 302.745 271.485 302.511 272.68 302.511C273.832 302.511 274.888 302.724 275.848 303.151C276.808 303.556 277.629 304.143 278.312 304.911C279.016 305.657 279.517 306.543 279.816 307.567L276.328 308.399C275.965 307.588 275.453 306.959 274.792 306.511C274.152 306.063 273.426 305.839 272.616 305.839C271.762 305.839 270.994 306.084 270.312 306.575C269.629 307.065 269.085 307.737 268.68 308.591C268.296 309.423 268.104 310.372 268.104 311.439C268.104 312.484 268.296 313.423 268.68 314.255C269.064 315.065 269.586 315.705 270.248 316.175C270.93 316.644 271.72 316.879 272.616 316.879C273.469 316.879 274.248 316.665 274.952 316.239C275.656 315.791 276.178 315.161 276.52 314.351L279.976 315.151C279.677 316.175 279.165 317.071 278.44 317.839C277.714 318.585 276.85 319.172 275.848 319.599C274.845 320.004 273.768 320.207 272.616 320.207Z" fill="#0E0E0E"/>
<path d="M283.001 319.727V295.919H286.681V309.903L293.529 302.991H298.009L290.489 310.415L298.777 319.727H293.945L286.681 311.279V319.727H283.001Z" fill="#0E0E0E"/>
<path d="M305.871 320.207C305.018 320.207 304.229 320.079 303.503 319.823C302.799 319.567 302.181 319.204 301.647 318.735C301.114 318.265 300.698 317.711 300.399 317.071C300.101 316.431 299.951 315.727 299.951 314.959C299.951 313.892 300.229 312.964 300.783 312.175C301.359 311.364 302.159 310.735 303.183 310.287C304.207 309.839 305.402 309.615 306.767 309.615C307.514 309.615 308.229 309.689 308.911 309.839C309.594 309.967 310.245 310.159 310.863 310.415V309.359C310.863 308.612 310.725 307.961 310.447 307.407C310.17 306.831 309.775 306.383 309.263 306.063C308.751 305.743 308.133 305.583 307.407 305.583C306.639 305.583 305.946 305.785 305.327 306.191C304.709 306.596 304.25 307.161 303.951 307.887L300.559 307.119C300.815 306.18 301.274 305.369 301.935 304.687C302.618 304.004 303.429 303.471 304.367 303.087C305.327 302.703 306.362 302.511 307.471 302.511C308.517 302.511 309.466 302.681 310.319 303.023C311.194 303.364 311.941 303.844 312.559 304.463C313.178 305.081 313.658 305.817 313.999 306.671C314.341 307.524 314.511 308.473 314.511 309.519V319.727H311.151L311.023 317.519C310.575 318.329 309.903 318.98 309.007 319.471C308.111 319.961 307.066 320.207 305.871 320.207ZM303.663 314.799C303.663 315.268 303.791 315.695 304.047 316.079C304.303 316.441 304.655 316.729 305.103 316.943C305.573 317.156 306.117 317.263 306.735 317.263C307.525 317.263 308.229 317.092 308.847 316.751C309.466 316.409 309.957 315.951 310.319 315.375C310.682 314.777 310.863 314.105 310.863 313.359V312.975C310.309 312.74 309.733 312.559 309.135 312.431C308.559 312.281 307.962 312.207 307.343 312.207C306.234 312.207 305.338 312.441 304.655 312.911C303.994 313.38 303.663 314.009 303.663 314.799Z" fill="#0E0E0E"/>
<path d="M325.446 319.407C324.358 319.407 323.345 319.193 322.406 318.767C321.467 318.34 320.646 317.753 319.942 317.007C319.238 316.239 318.694 315.353 318.31 314.351C317.926 313.327 317.734 312.217 317.734 311.023C317.734 309.828 317.926 308.719 318.31 307.695C318.715 306.649 319.281 305.743 320.006 304.975C320.731 304.207 321.574 303.609 322.534 303.183C323.494 302.735 324.529 302.511 325.638 302.511C326.79 302.511 327.835 302.767 328.774 303.279C329.734 303.769 330.502 304.463 331.078 305.359L331.206 302.991H334.566V317.967C334.566 319.247 334.363 320.409 333.958 321.455C333.553 322.521 332.977 323.428 332.23 324.175C331.483 324.943 330.587 325.529 329.542 325.935C328.518 326.34 327.366 326.543 326.086 326.543C324.379 326.543 322.886 326.159 321.606 325.391C320.326 324.623 319.323 323.556 318.598 322.191L322.086 320.975C322.555 321.743 323.142 322.319 323.846 322.703C324.55 323.108 325.339 323.311 326.214 323.311C327.153 323.311 327.974 323.097 328.678 322.671C329.382 322.265 329.926 321.679 330.31 320.911C330.694 320.164 330.886 319.279 330.886 318.255V316.655C330.289 317.508 329.521 318.18 328.582 318.671C327.643 319.161 326.598 319.407 325.446 319.407ZM326.214 316.079C327.11 316.079 327.91 315.855 328.614 315.407C329.339 314.959 329.905 314.351 330.31 313.583C330.737 312.815 330.95 311.94 330.95 310.959C330.95 309.977 330.737 309.103 330.31 308.335C329.905 307.567 329.339 306.959 328.614 306.511C327.91 306.063 327.11 305.839 326.214 305.839C325.318 305.839 324.518 306.063 323.814 306.511C323.11 306.959 322.545 307.567 322.118 308.335C321.713 309.103 321.51 309.977 321.51 310.959C321.51 311.94 321.713 312.815 322.118 313.583C322.545 314.351 323.11 314.959 323.814 315.407C324.518 315.855 325.318 316.079 326.214 316.079Z" fill="#0E0E0E"/>
<path d="M342.597 298.319C342.597 298.724 342.49 299.097 342.277 299.439C342.085 299.78 341.818 300.057 341.477 300.271C341.135 300.463 340.762 300.559 340.357 300.559C339.951 300.559 339.578 300.463 339.237 300.271C338.895 300.057 338.618 299.78 338.405 299.439C338.213 299.097 338.117 298.724 338.117 298.319C338.117 297.913 338.213 297.54 338.405 297.199C338.618 296.857 338.895 296.591 339.237 296.399C339.578 296.185 339.951 296.079 340.357 296.079C340.762 296.079 341.135 296.185 341.477 296.399C341.818 296.591 342.085 296.857 342.277 297.199C342.49 297.54 342.597 297.913 342.597 298.319ZM338.533 319.727V302.991H342.213V319.727H338.533Z" fill="#0E0E0E"/>
<path d="M346.189 319.727V302.991H349.549L349.677 305.295C350.167 304.441 350.85 303.769 351.725 303.279C352.621 302.767 353.645 302.511 354.797 302.511C356.055 302.511 357.143 302.809 358.061 303.407C358.999 304.004 359.725 304.847 360.237 305.935C360.749 307.023 361.005 308.303 361.005 309.775V319.727H357.325V310.191C357.325 308.825 357.015 307.759 356.397 306.991C355.799 306.223 354.957 305.839 353.869 305.839C353.101 305.839 352.407 306.02 351.789 306.383C351.191 306.745 350.722 307.236 350.381 307.855C350.039 308.473 349.869 309.188 349.869 309.999V319.727H346.189Z" fill="#0E0E0E"/>
<path d="M371.946 319.407C370.858 319.407 369.845 319.193 368.906 318.767C367.967 318.34 367.146 317.753 366.442 317.007C365.738 316.239 365.194 315.353 364.81 314.351C364.426 313.327 364.234 312.217 364.234 311.023C364.234 309.828 364.426 308.719 364.81 307.695C365.215 306.649 365.781 305.743 366.506 304.975C367.231 304.207 368.074 303.609 369.034 303.183C369.994 302.735 371.029 302.511 372.138 302.511C373.29 302.511 374.335 302.767 375.274 303.279C376.234 303.769 377.002 304.463 377.578 305.359L377.706 302.991H381.066V317.967C381.066 319.247 380.863 320.409 380.458 321.455C380.053 322.521 379.477 323.428 378.73 324.175C377.983 324.943 377.087 325.529 376.042 325.935C375.018 326.34 373.866 326.543 372.586 326.543C370.879 326.543 369.386 326.159 368.106 325.391C366.826 324.623 365.823 323.556 365.098 322.191L368.586 320.975C369.055 321.743 369.642 322.319 370.346 322.703C371.05 323.108 371.839 323.311 372.714 323.311C373.653 323.311 374.474 323.097 375.178 322.671C375.882 322.265 376.426 321.679 376.81 320.911C377.194 320.164 377.386 319.279 377.386 318.255V316.655C376.789 317.508 376.021 318.18 375.082 318.671C374.143 319.161 373.098 319.407 371.946 319.407ZM372.714 316.079C373.61 316.079 374.41 315.855 375.114 315.407C375.839 314.959 376.405 314.351 376.81 313.583C377.237 312.815 377.45 311.94 377.45 310.959C377.45 309.977 377.237 309.103 376.81 308.335C376.405 307.567 375.839 306.959 375.114 306.511C374.41 306.063 373.61 305.839 372.714 305.839C371.818 305.839 371.018 306.063 370.314 306.511C369.61 306.959 369.045 307.567 368.618 308.335C368.213 309.103 368.01 309.977 368.01 310.959C368.01 311.94 368.213 312.815 368.618 313.583C369.045 314.351 369.61 314.959 370.314 315.407C371.018 315.855 371.818 316.079 372.714 316.079Z" fill="#0E0E0E"/>
<rect x="504.804" y="356.983" width="272.392" height="63.1852" rx="10" fill="#25A9E0"/>
<rect x="504.804" y="239.931" width="272.392" height="142.599" rx="11" fill="#9ACA46"/>
<path d="M553.517 322.895V300.175H561.805C563.597 300.175 565.229 300.452 566.701 301.007C568.194 301.54 569.464 302.308 570.509 303.311C571.576 304.292 572.397 305.476 572.973 306.863C573.549 308.249 573.837 309.796 573.837 311.503C573.837 313.209 573.549 314.767 572.973 316.175C572.397 317.561 571.576 318.756 570.509 319.759C569.442 320.761 568.173 321.54 566.701 322.095C565.229 322.628 563.597 322.895 561.805 322.895H553.517ZM557.421 319.407H561.613C563.298 319.407 564.749 319.087 565.965 318.447C567.181 317.807 568.12 316.9 568.781 315.727C569.464 314.532 569.805 313.135 569.805 311.535C569.805 309.935 569.464 308.548 568.781 307.375C568.12 306.18 567.17 305.263 565.933 304.623C564.717 303.983 563.277 303.663 561.613 303.663H557.421V319.407Z" fill="#0E0E0E"/>
<path d="M581.356 301.487C581.356 301.892 581.25 302.265 581.036 302.607C580.844 302.948 580.578 303.225 580.236 303.439C579.895 303.631 579.522 303.727 579.116 303.727C578.711 303.727 578.338 303.631 577.996 303.439C577.655 303.225 577.378 302.948 577.164 302.607C576.972 302.265 576.876 301.892 576.876 301.487C576.876 301.081 576.972 300.708 577.164 300.367C577.378 300.025 577.655 299.759 577.996 299.567C578.338 299.353 578.711 299.247 579.116 299.247C579.522 299.247 579.895 299.353 580.236 299.567C580.578 299.759 580.844 300.025 581.036 300.367C581.25 300.708 581.356 301.081 581.356 301.487ZM577.292 322.895V306.159H580.972V322.895H577.292Z" fill="#0E0E0E"/>
<path d="M590.677 323.375C589.589 323.375 588.575 323.193 587.637 322.831C586.719 322.468 585.93 321.956 585.269 321.295C584.629 320.612 584.17 319.812 583.893 318.895L587.221 318.031C587.498 318.756 587.946 319.321 588.565 319.727C589.183 320.132 589.898 320.335 590.709 320.335C591.541 320.335 592.223 320.143 592.757 319.759C593.29 319.353 593.557 318.841 593.557 318.223C593.557 317.689 593.343 317.241 592.917 316.879C592.49 316.516 591.797 316.249 590.837 316.079L589.781 315.887C587.989 315.567 586.634 314.991 585.717 314.159C584.821 313.327 584.373 312.26 584.373 310.959C584.373 309.913 584.639 308.996 585.173 308.207C585.706 307.417 586.442 306.799 587.381 306.351C588.319 305.903 589.397 305.679 590.613 305.679C591.658 305.679 592.618 305.86 593.493 306.223C594.367 306.585 595.103 307.097 595.701 307.759C596.298 308.42 596.725 309.199 596.981 310.095L593.685 310.895C593.429 310.212 593.023 309.679 592.469 309.295C591.935 308.889 591.306 308.687 590.581 308.687C589.834 308.687 589.215 308.879 588.725 309.263C588.234 309.625 587.989 310.095 587.989 310.671C587.989 311.161 588.202 311.567 588.629 311.887C589.077 312.207 589.823 312.463 590.869 312.655L591.925 312.847C593.631 313.145 594.943 313.732 595.861 314.607C596.778 315.481 597.237 316.569 597.237 317.871C597.237 318.66 597.077 319.396 596.757 320.079C596.437 320.74 595.978 321.327 595.381 321.839C594.805 322.329 594.111 322.703 593.301 322.959C592.511 323.236 591.637 323.375 590.677 323.375Z" fill="#0E0E0E"/>
<path d="M606.986 323.375C605.3 323.375 603.978 322.895 603.018 321.935C602.058 320.953 601.578 319.556 601.578 317.743V309.135H598.634V306.159H601.578V300.495H605.258V306.159H610.122V309.135H605.258V317.359C605.258 318.255 605.439 318.948 605.802 319.439C606.186 319.908 606.74 320.143 607.466 320.143C607.85 320.143 608.266 320.089 608.714 319.983C609.162 319.855 609.578 319.684 609.962 319.471L610.794 322.255C610.303 322.596 609.727 322.863 609.066 323.055C608.426 323.268 607.732 323.375 606.986 323.375Z" fill="#0E0E0E"/>
<path d="M613.699 322.895V306.159H617.059L617.219 308.911C617.645 307.972 618.232 307.247 618.979 306.735C619.747 306.201 620.643 305.935 621.667 305.935C621.987 305.935 622.296 305.956 622.595 305.999C622.893 306.041 623.16 306.116 623.395 306.223L622.979 309.807C622.744 309.721 622.499 309.668 622.243 309.647C621.987 309.604 621.731 309.583 621.475 309.583C620.195 309.583 619.192 310.009 618.467 310.863C617.741 311.716 617.379 312.9 617.379 314.415V322.895H613.699Z" fill="#0E0E0E"/>
<path d="M630.169 301.487C630.169 301.892 630.062 302.265 629.849 302.607C629.657 302.948 629.39 303.225 629.049 303.439C628.708 303.631 628.334 303.727 627.929 303.727C627.524 303.727 627.15 303.631 626.809 303.439C626.468 303.225 626.19 302.948 625.977 302.607C625.785 302.265 625.689 301.892 625.689 301.487C625.689 301.081 625.785 300.708 625.977 300.367C626.19 300.025 626.468 299.759 626.809 299.567C627.15 299.353 627.524 299.247 627.929 299.247C628.334 299.247 628.708 299.353 629.049 299.567C629.39 299.759 629.657 300.025 629.849 300.367C630.062 300.708 630.169 301.081 630.169 301.487ZM626.105 322.895V306.159H629.785V322.895H626.105Z" fill="#0E0E0E"/>
<path d="M633.761 322.895V299.087H637.441V308.591C638.038 307.673 638.817 306.959 639.777 306.447C640.737 305.935 641.793 305.679 642.945 305.679C644.054 305.679 645.078 305.903 646.017 306.351C646.977 306.799 647.809 307.417 648.513 308.207C649.217 308.996 649.761 309.924 650.145 310.991C650.55 312.057 650.753 313.209 650.753 314.447C650.753 315.705 650.55 316.879 650.145 317.967C649.74 319.055 649.174 320.004 648.449 320.815C647.724 321.625 646.87 322.255 645.889 322.703C644.929 323.151 643.884 323.375 642.753 323.375C641.58 323.375 640.513 323.119 639.553 322.607C638.614 322.095 637.857 321.369 637.281 320.431L637.121 322.895H633.761ZM642.177 320.047C643.094 320.047 643.916 319.812 644.641 319.343C645.366 318.852 645.932 318.191 646.337 317.359C646.764 316.527 646.977 315.577 646.977 314.511C646.977 313.444 646.764 312.505 646.337 311.695C645.932 310.863 645.366 310.212 644.641 309.743C643.916 309.252 643.094 309.007 642.177 309.007C641.26 309.007 640.438 309.252 639.713 309.743C638.988 310.212 638.412 310.863 637.985 311.695C637.58 312.505 637.377 313.444 637.377 314.511C637.377 315.577 637.58 316.527 637.985 317.359C638.412 318.191 638.988 318.852 639.713 319.343C640.438 319.812 641.26 320.047 642.177 320.047Z" fill="#0E0E0E"/>
<path d="M661.34 323.375C659.847 323.375 658.545 323.055 657.436 322.415C656.348 321.775 655.495 320.868 654.876 319.695C654.279 318.5 653.98 317.103 653.98 315.503V306.159H657.66V315.567C657.66 316.953 657.991 318.052 658.652 318.863C659.313 319.652 660.22 320.047 661.372 320.047C662.524 320.047 663.431 319.652 664.092 318.863C664.753 318.052 665.084 316.953 665.084 315.567V306.159H668.764V315.503C668.764 317.081 668.455 318.468 667.836 319.663C667.239 320.836 666.385 321.753 665.276 322.415C664.167 323.055 662.855 323.375 661.34 323.375Z" fill="#0E0E0E"/>
<path d="M679.642 323.375C677.957 323.375 676.634 322.895 675.674 321.935C674.714 320.953 674.234 319.556 674.234 317.743V309.135H671.29V306.159H674.234V300.495H677.914V306.159H682.778V309.135H677.914V317.359C677.914 318.255 678.095 318.948 678.458 319.439C678.842 319.908 679.397 320.143 680.122 320.143C680.506 320.143 680.922 320.089 681.37 319.983C681.818 319.855 682.234 319.684 682.618 319.471L683.45 322.255C682.959 322.596 682.383 322.863 681.722 323.055C681.082 323.268 680.389 323.375 679.642 323.375Z" fill="#0E0E0E"/>
<path d="M690.419 301.487C690.419 301.892 690.312 302.265 690.099 302.607C689.907 302.948 689.64 303.225 689.299 303.439C688.957 303.631 688.584 303.727 688.179 303.727C687.773 303.727 687.4 303.631 687.059 303.439C686.717 303.225 686.44 302.948 686.227 302.607C686.035 302.265 685.939 301.892 685.939 301.487C685.939 301.081 686.035 300.708 686.227 300.367C686.44 300.025 686.717 299.759 687.059 299.567C687.4 299.353 687.773 299.247 688.179 299.247C688.584 299.247 688.957 299.353 689.299 299.567C689.64 299.759 689.907 300.025 690.099 300.367C690.312 300.708 690.419 301.081 690.419 301.487ZM686.355 322.895V306.159H690.035V322.895H686.355Z" fill="#0E0E0E"/>
<path d="M701.787 323.375C700.571 323.375 699.44 323.161 698.395 322.735C697.371 322.287 696.475 321.668 695.707 320.879C694.939 320.068 694.342 319.129 693.915 318.063C693.488 316.975 693.275 315.791 693.275 314.511C693.275 313.252 693.488 312.089 693.915 311.023C694.342 309.935 694.939 308.996 695.707 308.207C696.496 307.396 697.414 306.777 698.459 306.351C699.526 305.903 700.678 305.679 701.915 305.679C703.131 305.679 704.251 305.903 705.275 306.351C706.32 306.777 707.227 307.396 707.995 308.207C708.763 308.996 709.36 309.924 709.787 310.991C710.214 312.057 710.427 313.231 710.427 314.511C710.427 315.791 710.214 316.975 709.787 318.063C709.36 319.129 708.752 320.068 707.963 320.879C707.195 321.668 706.278 322.287 705.211 322.735C704.166 323.161 703.024 323.375 701.787 323.375ZM701.851 320.047C702.768 320.047 703.59 319.812 704.315 319.343C705.04 318.852 705.606 318.191 706.011 317.359C706.438 316.527 706.651 315.577 706.651 314.511C706.651 313.444 706.438 312.505 706.011 311.695C705.606 310.863 705.04 310.212 704.315 309.743C703.59 309.252 702.768 309.007 701.851 309.007C700.934 309.007 700.112 309.252 699.387 309.743C698.662 310.212 698.086 310.863 697.659 311.695C697.254 312.505 697.051 313.444 697.051 314.511C697.051 315.577 697.254 316.527 697.659 317.359C698.086 318.191 698.662 318.852 699.387 319.343C700.112 319.812 700.934 320.047 701.851 320.047Z" fill="#0E0E0E"/>
<path d="M713.667 322.895V306.159H717.027L717.155 308.463C717.646 307.609 718.329 306.937 719.203 306.447C720.099 305.935 721.123 305.679 722.275 305.679C723.534 305.679 724.622 305.977 725.539 306.575C726.478 307.172 727.203 308.015 727.715 309.103C728.227 310.191 728.483 311.471 728.483 312.943V322.895H724.803V313.359C724.803 311.993 724.494 310.927 723.875 310.159C723.278 309.391 722.435 309.007 721.347 309.007C720.579 309.007 719.886 309.188 719.267 309.551C718.67 309.913 718.201 310.404 717.859 311.023C717.518 311.641 717.347 312.356 717.347 313.167V322.895H713.667Z" fill="#0E0E0E"/>
<rect x="840.611" y="356.983" width="272.392" height="63.1852" rx="10" fill="#25A9E0"/>
<rect x="840.611" y="239.931" width="272.392" height="142.599" rx="11" fill="#9ACA46"/>
<path d="M927.153 319.423V296.703H940.913V300.063H930.993V306.015H939.953V309.375H930.993V316.063H941.233V319.423H927.153Z" fill="#0E0E0E"/>
<path d="M943.548 319.423L949.916 310.591L944.252 302.687H948.412L951.996 308.287L955.676 302.687H959.676L954.012 310.591L960.38 319.423H956.06L951.932 313.023L947.74 319.423H943.548Z" fill="#0E0E0E"/>
<path d="M962.803 325.759V302.687H966.163L966.323 305.375C966.92 304.393 967.71 303.625 968.691 303.071C969.672 302.495 970.771 302.207 971.987 302.207C973.096 302.207 974.12 302.431 975.059 302.879C976.019 303.327 976.851 303.945 977.555 304.735C978.259 305.524 978.803 306.452 979.187 307.519C979.592 308.585 979.795 309.737 979.795 310.975C979.795 312.233 979.592 313.407 979.187 314.495C978.782 315.583 978.216 316.532 977.491 317.343C976.766 318.153 975.912 318.783 974.931 319.231C973.971 319.679 972.926 319.903 971.795 319.903C970.686 319.903 969.672 319.668 968.755 319.199C967.838 318.729 967.08 318.068 966.483 317.215V325.759H962.803ZM971.219 316.575C972.136 316.575 972.958 316.34 973.683 315.871C974.408 315.38 974.974 314.719 975.379 313.887C975.806 313.055 976.019 312.105 976.019 311.039C976.019 309.972 975.806 309.033 975.379 308.223C974.974 307.391 974.408 306.74 973.683 306.271C972.958 305.78 972.136 305.535 971.219 305.535C970.302 305.535 969.48 305.78 968.755 306.271C968.03 306.74 967.454 307.391 967.027 308.223C966.622 309.033 966.419 309.972 966.419 311.039C966.419 312.105 966.622 313.055 967.027 313.887C967.454 314.719 968.03 315.38 968.755 315.871C969.48 316.34 970.302 316.575 971.219 316.575Z" fill="#0E0E0E"/>
<path d="M990.954 319.903C989.738 319.903 988.607 319.689 987.562 319.263C986.538 318.815 985.642 318.196 984.874 317.407C984.106 316.596 983.509 315.657 983.082 314.591C982.655 313.503 982.442 312.319 982.442 311.039C982.442 309.78 982.655 308.617 983.082 307.551C983.509 306.463 984.106 305.524 984.874 304.735C985.663 303.924 986.581 303.305 987.626 302.879C988.693 302.431 989.845 302.207 991.082 302.207C992.298 302.207 993.418 302.431 994.442 302.879C995.487 303.305 996.394 303.924 997.162 304.735C997.93 305.524 998.527 306.452 998.954 307.519C999.381 308.585 999.594 309.759 999.594 311.039C999.594 312.319 999.381 313.503 998.954 314.591C998.527 315.657 997.919 316.596 997.13 317.407C996.362 318.196 995.445 318.815 994.378 319.263C993.333 319.689 992.191 319.903 990.954 319.903ZM991.018 316.575C991.935 316.575 992.757 316.34 993.482 315.871C994.207 315.38 994.773 314.719 995.178 313.887C995.605 313.055 995.818 312.105 995.818 311.039C995.818 309.972 995.605 309.033 995.178 308.223C994.773 307.391 994.207 306.74 993.482 306.271C992.757 305.78 991.935 305.535 991.018 305.535C990.101 305.535 989.279 305.78 988.554 306.271C987.829 306.74 987.253 307.391 986.826 308.223C986.421 309.033 986.218 309.972 986.218 311.039C986.218 312.105 986.421 313.055 986.826 313.887C987.253 314.719 987.829 315.38 988.554 315.871C989.279 316.34 990.101 316.575 991.018 316.575Z" fill="#0E0E0E"/>
<path d="M1002.83 319.423V302.687H1006.19L1006.35 305.439C1006.78 304.5 1007.37 303.775 1008.11 303.263C1008.88 302.729 1009.78 302.463 1010.8 302.463C1011.12 302.463 1011.43 302.484 1011.73 302.527C1012.03 302.569 1012.3 302.644 1012.53 302.751L1012.11 306.335C1011.88 306.249 1011.63 306.196 1011.38 306.175C1011.12 306.132 1010.87 306.111 1010.61 306.111C1009.33 306.111 1008.33 306.537 1007.6 307.391C1006.88 308.244 1006.51 309.428 1006.51 310.943V319.423H1002.83Z" fill="#0E0E0E"/>
<path d="M1022.65 319.903C1020.97 319.903 1019.64 319.423 1018.68 318.463C1017.72 317.481 1017.24 316.084 1017.24 314.271V305.663H1014.3V302.687H1017.24V297.023H1020.92V302.687H1025.79V305.663H1020.92V313.887C1020.92 314.783 1021.11 315.476 1021.47 315.967C1021.85 316.436 1022.41 316.671 1023.13 316.671C1023.52 316.671 1023.93 316.617 1024.38 316.511C1024.83 316.383 1025.24 316.212 1025.63 315.999L1026.46 318.783C1025.97 319.124 1025.39 319.391 1024.73 319.583C1024.09 319.796 1023.4 319.903 1022.65 319.903Z" fill="#0E0E0E"/>
<g clip-path="url(#clip0_558_114)">
<path d="M289.091 76.8145H284.693L296.01 90.8471L284.693 104.814H289.091L300.408 90.8471L289.091 76.8145Z" fill="#353D46"/>
<path d="M297.498 76.8145H293.1L304.417 90.8471L293.1 104.814H297.498L308.815 90.8471L297.498 76.8145Z" fill="#353D46"/>
<path d="M305.969 76.8145H301.572L312.824 90.8471L301.572 104.814H305.969L317.222 90.8471L305.969 76.8145Z" fill="#353D46"/>
<path d="M314.376 76.8145H309.979L321.296 90.8471L309.979 104.814H314.376L325.693 90.8471L314.376 76.8145Z" fill="#353D46"/>
</g>
<g clip-path="url(#clip1_558_114)">
<path d="M625.95 76.8145H621.552L632.87 90.8471L621.552 104.814H625.95L637.267 90.8471L625.95 76.8145Z" fill="#353D46"/>
<path d="M634.357 76.8145H629.959L641.277 90.8471L629.959 104.814H634.357L645.674 90.8471L634.357 76.8145Z" fill="#353D46"/>
<path d="M642.829 76.8145H638.431L649.684 90.8471L638.431 104.814H642.829L654.081 90.8471L642.829 76.8145Z" fill="#353D46"/>
<path d="M651.235 76.8145H646.838L658.155 90.8471L646.838 104.814H651.235L662.552 90.8471L651.235 76.8145Z" fill="#353D46"/>
</g>
<g clip-path="url(#clip2_558_114)">
<path d="M961.204 76.8145H956.807L968.124 90.8471L956.807 104.814H961.204L972.521 90.8471L961.204 76.8145Z" fill="#353D46"/>
<path d="M969.611 76.8145H965.214L976.531 90.8471L965.214 104.814H969.611L980.928 90.8471L969.611 76.8145Z" fill="#353D46"/>
<path d="M978.083 76.8145H973.686L984.938 90.8471L973.686 104.814H978.083L989.335 90.8471L978.083 76.8145Z" fill="#353D46"/>
<path d="M986.49 76.8145H982.092L993.409 90.8471L982.092 104.814H986.49L997.807 90.8471L986.49 76.8145Z" fill="#353D46"/>
</g>
<g clip-path="url(#clip3_558_114)">
<path d="M792.801 316.05H788.404L799.721 330.082L788.404 344.05H792.801L804.118 330.082L792.801 316.05Z" fill="#353D46"/>
<path d="M801.208 316.05H796.811L808.128 330.082L796.811 344.05H801.208L812.525 330.082L801.208 316.05Z" fill="#353D46"/>
<path d="M809.68 316.05H805.282L816.535 330.082L805.282 344.05H809.68L820.932 330.082L809.68 316.05Z" fill="#353D46"/>
<path d="M818.086 316.05H813.689L825.006 330.082L813.689 344.05H818.086L829.403 330.082L818.086 316.05Z" fill="#353D46"/>
</g>
<g clip-path="url(#clip4_558_114)">
<path d="M456.994 316.05H452.597L463.914 330.082L452.597 344.05H456.994L468.311 330.082L456.994 316.05Z" fill="#353D46"/>
<path d="M465.401 316.05H461.004L472.321 330.082L461.004 344.05H465.401L476.718 330.082L465.401 316.05Z" fill="#353D46"/>
<path d="M473.873 316.05H469.475L480.728 330.082L469.475 344.05H473.873L485.125 330.082L473.873 316.05Z" fill="#353D46"/>
<path d="M482.28 316.05H477.882L489.199 330.082L477.882 344.05H482.28L493.597 330.082L482.28 316.05Z" fill="#353D46"/>
</g>
<defs>
<clipPath id="clip0_558_114">
<rect width="41" height="28" fill="white" transform="translate(284.693 76.8145)"/>
</clipPath>
<clipPath id="clip1_558_114">
<rect width="41" height="28" fill="white" transform="translate(621.552 76.8145)"/>
</clipPath>
<clipPath id="clip2_558_114">
<rect width="41" height="28" fill="white" transform="translate(956.807 76.8145)"/>
</clipPath>
<clipPath id="clip3_558_114">
<rect width="41" height="28" fill="white" transform="translate(788.404 316.05)"/>
</clipPath>
<clipPath id="clip4_558_114">
<rect width="41" height="28" fill="white" transform="translate(452.597 316.05)"/>
</clipPath>
</defs>
</svg>
