<svg width="25" height="17" viewBox="0 0 25 17" fill="none" xmlns="http://www.w3.org/2000/svg">
<path fill-rule="evenodd" clip-rule="evenodd" d="M21.92 0.519867C22.96 0.799955 23.7801 1.61992 24.0599 2.66009C24.5801 4.55995 24.5601 8.52001 24.5601 8.52001C24.5601 8.52001 24.5601 12.4599 24.0602 14.3599C23.7801 15.3999 22.9602 16.2199 21.92 16.4998C20.02 17 12.4201 17 12.4201 17C12.4201 17 4.83998 17 2.92012 16.48C1.87994 16.1999 1.06013 15.3799 0.780038 14.3399C0.280029 12.4599 0.280029 8.5 0.280029 8.5C0.280029 8.5 0.280029 4.55995 0.780038 2.66009C1.05983 1.62006 1.89994 0.779948 2.91997 0.500157C4.81997 0 12.4198 0 12.4198 0C12.4198 0 20.02 0 21.92 0.519867ZM16.32 8.5L10.0001 4.86004V12.14L16.32 8.5Z" fill="#25A9E0"/>
</svg>
